<?xml version="1.0" encoding="utf-8"?><!DOCTYPE svg PUBLIC "-//W3C//DTD SVG 1.1//EN" "http://www.w3.org/Graphics/SVG/1.1/DTD/svg11.dtd"><svg viewBox="0 0 451.847 451.847" xmlns="http://www.w3.org/2000/svg" xmlns:xlink="http://www.w3.org/1999/xlink"><style>:root>svg{display:none}:root>svg:target{display:block}</style><svg fill="none" viewBox="0 0 112 25" id="Frame" xmlns="http://www.w3.org/2000/svg"><g clip-path="url(#aclip0)" fill="#000"><path d="M0 12.313v12.303h4.88V14.586l1.87.06 1.87.059 2.87 4.94 2.85 4.942 2.81.03c1.52 0 2.78-.04 2.78-.1 0-.058-1.3-2.342-2.87-5.068-1.59-2.727-2.91-5-2.95-5.07-.04-.078.44-.373 1.09-.698 1.49-.728 2.99-2.096 3.63-3.337.89-1.761.94-4.862.08-6.505-.89-1.703-2.97-3.14-5.26-3.623C13 .08 10.13-.01 6.29-.01H0v12.323zm12.95-7.697c1.12.502 1.69 1.398 1.69 2.697 0 1.2-.51 2.126-1.46 2.638-.57.295-1.28.374-4.47.423l-3.82.079v-6.26H8.5c3.11.02 3.72.079 4.45.423zM77.65 12.52v12.106h4.68V.413h-4.68V12.52zM103.5 11.752c.06 9.33.06 9.37.53 10.305.53 1.063 1.79 2.264 2.81 2.677.44.177 1.46.275 2.92.275H112v-3.995h-1.3c-.99 0-1.4-.099-1.83-.424l-.53-.403V10.807H112v-3.8h-3.66V2.402h-4.9l.06 9.35z"/><path d="M26.18 6.988c-1.65.542-2.77 1.23-3.96 2.46-1.22 1.3-1.79 2.304-2.2 4.007-1.09 4.567.91 8.937 4.98 10.836 1.26.6 1.42.63 3.96.63 2.27 0 2.81-.059 3.82-.472 1.42-.561 3.32-2.205 4.07-3.563l.53-.975-1.63-.935c-.89-.521-1.7-.935-1.79-.935-.08 0-.43.404-.79.876-.81 1.162-1.91 1.86-3.25 2.126-1.19.227-2.06.099-3.09-.423-1.22-.6-2.44-2.175-2.44-3.18 0-.403.08-.403 6.71-.403h6.71v-1.673c0-3.838-1.8-6.673-5.18-8.14-1.45-.669-4.81-.767-6.45-.236zm5.49 3.908c.53.364 1.04.935 1.36 1.604l.53 1.024-4.51.059c-2.48.03-4.55 0-4.61-.06-.28-.275 1.18-2.066 2.2-2.667 1.04-.63 1.22-.66 2.67-.6 1.28.059 1.65.138 2.36.64zM63.04 6.92c-2.62.728-5.04 2.627-6.03 4.763-.71 1.565-1.02 3.967-.71 5.778.79 4.734 4.34 7.569 9.55 7.569 3.05 0 5.08-.729 7.05-2.461 1.14-1.024 1.91-2.303 2.41-4.026.43-1.466.33-4.734-.18-6.132-.84-2.263-3.05-4.36-5.55-5.236-1.55-.56-4.97-.689-6.54-.256zm4.95 4.468c2.85 1.24 3.79 4.98 1.87 7.46-1.36 1.762-4.23 2.422-6.16 1.428-1.05-.561-2.2-1.802-2.52-2.766-.41-1.2-.17-3.337.47-4.272 1.44-2.146 3.94-2.864 6.34-1.85zM37.67 7.293c.06.138 1.69 4.105 3.62 8.8l3.52 8.543 2.21-.06 2.21-.058 3.43-8.307c1.89-4.567 3.49-8.504 3.56-8.77l.13-.463-2.48.06-2.5.058-2.16 5.64c-1.18 3.1-2.21 5.581-2.27 5.502-.08-.078-1.08-2.638-2.24-5.699L42.59 7h-2.52c-2.03.019-2.49.078-2.4.294zM84.76 12.48c0 3.081.1 5.975.23 6.644.44 2.441 1.77 4.124 4.03 5.177 1.3.6 1.45.63 4.09.63 2.58 0 2.82-.04 3.96-.56 2.26-1.034 3.7-2.865 4.14-5.237.13-.66.23-3.563.23-6.644V7.028h-4.65l-.06 5.442c-.06 5.227-.08 5.502-.53 6.3-.65 1.2-1.75 1.722-3.39 1.624-1.46-.079-2.3-.571-2.87-1.703-.34-.68-.38-1.358-.44-6.23l-.06-5.443h-4.65v5.462h-.03z"/></g><defs><clipPath id="aclip0"><path fill="#fff" d="M0 0h112v25H0z"/></clipPath></defs></svg><svg viewBox="0 0 451.847 451.847" id="arrow-down" xmlns="http://www.w3.org/2000/svg"><path d="M225.923 354.706c-8.098 0-16.195-3.092-22.369-9.263L9.27 151.157c-12.359-12.359-12.359-32.397 0-44.751 12.354-12.354 32.388-12.354 44.748 0l171.905 171.915 171.906-171.909c12.359-12.354 32.391-12.354 44.744 0 12.365 12.354 12.365 32.392 0 44.751L248.292 345.449c-6.177 6.172-14.274 9.257-22.369 9.257z"/></svg><svg viewBox="0 0 32 32" id="burger" xmlns="http://www.w3.org/2000/svg"><path d="M4 10h24a2 2 0 000-4H4a2 2 0 000 4zm24 4H4a2 2 0 000 4h24a2 2 0 000-4zm0 8H4a2 2 0 000 4h24a2 2 0 000-4z"/></svg><svg fill="none" viewBox="0 0 150 37" id="capterra" xmlns="http://www.w3.org/2000/svg"><g clip-path="url(#dclip0)" fill-rule="evenodd" clip-rule="evenodd" fill="#000"><path d="M42.48 25.36c.264-.132.528.132.66.396 0 0 .396 1.583.923 1.583 0 .264 0 .528-.264.66-.923.395-2.902.923-5.013.923-6.332 0-10.818-4.485-10.818-10.554 0-6.464 4.75-10.554 11.214-10.554.924 0 2.77.264 3.958.528.132.132.396.395.396.66v4.353c0 .264-.264.528-.528.528h-1.187c-.264 0-.396-.132-.528-.396l-.396-1.715c-.264-.924-1.055-1.32-2.638-1.32-4.486 0-5.937 3.563-5.937 7.256 0 4.222 1.979 8.18 6.992 8.18 1.055.132 2.507-.132 3.166-.528zm10.027.924c1.583 0 2.638-1.188 2.638-2.375l-.132-2.375c0-.132 0-.264-.264-.264-3.43 0-4.617 1.188-4.617 2.903-.132 1.187.924 2.11 2.375 2.11zm8.443.264c0-.264-.264-.396-.528-.396-.264.132-.527.132-.791.132-.66 0-.792-.396-.792-.924v-6.992c0-4.09-2.506-5.673-6.2-5.673-1.847 0-3.826.396-5.146.924-.263.132-.395.396-.263.66l.395 1.846c.132.396.396.396.66.264.924-.527 2.11-.791 3.298-.791 1.979 0 3.43.791 3.43 2.506v.528c0 .264-.132.528-.264.528-4.617 0-8.443 1.45-8.443 5.672 0 2.375 1.715 4.222 4.486 4.222 2.506 0 3.694-1.055 4.617-2.11h.132c.132 1.187.792 2.11 2.507 2.11.923 0 2.506-.264 2.77-.528.264-.132.264-.264.264-.527l-.132-1.451zM71.108 15.73c-1.583 0-2.77.923-2.77 2.374v6.069c0 1.32.923 2.11 2.506 2.11 2.903 0 3.958-2.902 3.958-5.54-.132-2.507-1.187-5.013-3.694-5.013zm-.396 18.733c.264 0 .528-.264.528-.528v-.791c0-.264-.132-.528-.396-.528l-1.847-.264c-.263-.132-.66-.396-.66-.923V28.13h.66c.396 0 .66.131 1.056.131 5.805 0 8.707-3.561 8.707-8.707 0-4.221-2.507-7.124-6.069-7.124-2.374 0-3.694 1.188-4.749 2.375h-.132l-.264-1.451c0-.264-.264-.66-.66-.528l-4.88.528c-.264 0-.528.264-.528.528v.791c0 .264.131.396.395.528l1.452.264c.527.132.66.66.66.923v15.436c0 .66-.265.923-.66.923l-1.188.396c-.264.132-.395.264-.395.528v.791c0 .264.263.528.527.528l8.443-.528zm19.79-8.707c.395 0 .659.132.659.396l.528 1.583c0 .396 0 .527-.264.66-.924.527-2.639.791-3.826.791-3.034 0-5.145-1.715-5.145-4.75v-7.915c0-.264-.132-.396-.396-.396h-2.11c-.265 0-.265-.132-.265-.396l.132-1.714s.132-.264.264-.264h1.715c.396 0 .396-.264.396-.528v-1.979c0-.396.132-.66.528-.791l2.902-.924c.396-.132.528.132.528.528v3.166c0 .132.132.396.396.396h3.825c.132 0 .264.132.264.264v1.847s-.132.263-.264.263h-3.825c-.264 0-.528.132-.528.396v7.124c0 1.715.923 2.77 2.638 2.77.528-.131 1.188-.263 1.847-.527zm11.609-8.575c0 2.11-2.111 2.77-4.09 2.77-.528 0-.923 0-1.187-.132-.264 0-.396-.132-.396-.395-.132-1.98.924-4.618 3.298-4.618 1.451 0 2.375 1.056 2.375 2.375zm2.638 8.047c.264-.264.528 0 .66.264l.132 1.583c.132.264 0 .528-.264.66-1.187.791-3.034 1.187-4.749 1.187-5.277 0-8.048-3.298-8.048-8.18 0-4.617 3.562-8.047 7.916-8.047 2.902 0 5.805 1.583 5.805 4.618 0 3.562-3.694 4.88-6.86 4.88H97.23c-.264 0-.396.133-.396.397.264 2.374 2.638 3.826 4.617 3.826 1.451 0 2.507-.528 3.298-.924v-.264zm11.874 3.43c.264 0 .527-.264.527-.527v-.792c0-.264-.131-.396-.395-.528l-1.847-.264c-.264 0-.66-.395-.66-.923v-6.86c0-1.583 1.319-2.507 2.771-2.507.659 0 1.319.132 1.846.264.264.132.66-.132.66-.264l.66-2.77c.132-.396 0-.66-.264-.66-.396-.264-.924-.264-1.319-.264-1.979 0-3.299 1.32-4.486 2.903h-.132l-.264-2.111c0-.396-.263-.66-.527-.66l-4.882.66c-.263 0-.527.264-.527.528v.791c0 .264.132.396.395.528l1.452.264c.527.132.659.66.659.923v9.499c0 .66-.264.923-.659.923l-1.32.264c-.263.132-.395.264-.395.528v.791c0 .264.263.528.527.528h8.18v-.264zm13.852-.527c0 .263-.264.527-.528.527h-8.179c-.264 0-.528-.264-.528-.527v-.792c0-.264.132-.396.396-.528l1.319-.264c.396 0 .66-.395.66-.923v-9.499c0-.396-.132-.791-.66-.923l-1.451-.264c-.264-.132-.396-.264-.396-.528v-.791c0-.264.264-.528.528-.528l4.881-.66c.264 0 .528.264.528.66l.264 2.375h.132c1.187-1.583 2.638-2.903 4.485-2.903.396 0 .924 0 1.319.264.264 0 .396.264.264.66l-.659 2.77c0 .132-.396.396-.66.264-.528-.132-1.187-.264-1.847-.264-1.451 0-2.77.924-2.77 2.507v6.86c0 .66.395.924.659.924l1.847.263c.264.132.396.264.396.528v.792zm13.588-4.222c0 1.187-.923 2.375-2.638 2.375-1.319 0-2.507-.924-2.507-2.243 0-1.715 1.188-2.902 4.618-2.902.264 0 .264.131.264.263l.263 2.507zm5.277 2.243c.264 0 .528.132.528.395l.264 1.584c0 .263 0 .395-.264.527-.396.264-1.847.528-2.77.528-1.583 0-2.375-.792-2.507-2.11h-.132c-.923.923-2.243 2.11-4.617 2.11-2.771 0-4.486-1.847-4.486-4.222 0-4.221 3.826-5.672 8.444-5.672.131 0 .263-.264.263-.528v-.66c0-1.847-1.451-2.506-3.43-2.506-1.187 0-2.506.395-3.298.791-.264.132-.528.132-.66-.264l-.395-1.847c-.132-.264 0-.527.264-.66 1.319-.659 3.298-.923 5.145-.923 3.694 0 6.2 1.583 6.2 5.673v6.992c0 .66.264.924.924.924 0 0 .264 0 .527-.132zM6.069 17.445H.792c-.132 0-.264-.132-.132-.132-.132 0-.132-.132-.132-.264l.132-.66c.132-.264.132-.396.132-.396 0-.132.131-.263.131-.395 0-.264.132-.528.264-.792C3.298 7.022 10.158.954 10.817.294c.397-.132.529-.132.793 0C18.864 6.76 21.636 13.223 21.9 16.785v.396c0 .132-.132.396-.396.396h-5.409c-.132 0-.396 0-.396-.264a4.766 4.766 0 00-4.617-3.694c-2.243 0-4.09 1.583-4.618 3.694-.132 0-.132.132-.395.132zm9.762 2.11h5.41s.263 0 0 .132c.131 0 .131.132.131.264l-.132.66c-.132.132-.132.264-.132.264 0 .132-.132.264-.132.395 0 .264-.132.528-.264.792-2.242 7.784-9.102 13.984-9.762 14.644-.264.132-.396.132-.66 0C3.166 30.24.264 23.777 0 20.216v-.397c0-.132.132-.395.396-.395h5.409c.132 0 .396 0 .396.263a4.766 4.766 0 004.617 3.694c2.243 0 4.09-1.583 4.617-3.694 0 0 .132-.132.396-.132z"/></g><defs><clipPath id="dclip0"><path fill="#fff" d="M0 0h150v37H0z"/></clipPath></defs></svg><svg viewBox="0 0 329.269 329" id="close" xmlns="http://www.w3.org/2000/svg"><path d="M194.8 164.77L323.013 36.555c8.343-8.34 8.343-21.825 0-30.164-8.34-8.34-21.825-8.34-30.164 0L164.633 134.605 36.422 6.391c-8.344-8.34-21.824-8.34-30.164 0-8.344 8.34-8.344 21.824 0 30.164l128.21 128.215L6.259 292.984c-8.344 8.34-8.344 21.825 0 30.164a21.266 21.266 0 0015.082 6.25c5.46 0 10.922-2.09 15.082-6.25l128.21-128.214 128.216 128.214a21.273 21.273 0 0015.082 6.25c5.46 0 10.922-2.09 15.082-6.25 8.343-8.34 8.343-21.824 0-30.164zm0 0"/></svg><svg fill="none" viewBox="0 0 150 19" id="daimler" xmlns="http://www.w3.org/2000/svg"><path d="M1.994 1.467H.664C.498.313.581.066 4.487.066h5.485c7.811 0 11.136 3.46 11.136 9.228 0 5.52-3.158 9.228-10.887 9.228H.083a2.332 2.332 0 010-1.071c2.908-.165 3.407-.33 3.407-2.142V2.62c0-.989-.333-1.153-1.496-1.153zm15.54 8.321c0-5.108-2.66-8.157-7.895-8.157H6.814v13.43c0 1.648.582 1.895 3.075 1.895 4.653.083 7.645-1.4 7.645-7.168zM34.155.231c.083.577.249 1.071.664 1.977l6.233 14.09c.333.659.582.906 1.995.906h.581c.166.741 0 1.236-.664 1.236h-8.726c-.083-.247-.083-.66 0-1.071 2.908-.083 3.24-.33 2.908-.99l-1.662-4.036h-6.98l-1.08 2.883c-.582 1.566-.582 1.978.83 1.978h2.327c.166.741 0 1.236-.665 1.236h-7.728c-.083-.247-.083-.66 0-1.071 2.078-.248 2.327-.412 3.075-2.143L30.58 2.703C31.495.643 31.828.23 33.074.23h1.08zm.664 10.711l-2.908-6.921-2.826 6.921h5.734zM54.35.56c.082.248.082.742 0 1.072-2.328.165-2.66.659-2.66 1.813v12.688c0 .906.25 1.154 1.413 1.154h1.495c.167.741.084 1.235-.664 1.235h-8.227c-.084-.247-.084-.659 0-1.07 2.16-.33 2.659-.578 2.659-1.73V2.95c0-.989-.25-1.153-1.496-1.153h-1.33c-.166-.66 0-1.236 1.164-1.236h7.645zM85.43.56c.083.33.083.66 0 1.072-2.493.165-2.66.577-2.576 1.4l1.33 13.101c.083.824.498.906 2.576 1.236.083.741 0 1.236-.748 1.236h-9.557c-.083-.33-.083-.66 0-1.071l1.496-.083c2.244-.165 2.66-.412 2.493-1.73L79.197 3.94 72.715 17.45c-.498.989-.664 1.154-1.33 1.154L63.907 4.02l-.83 12.03c-.084 1.07-.084 1.318 2.742 1.318h1.496c.166.741.083 1.236-.665 1.236h-8.892c-.083-.33-.083-.66 0-1.071 2.992-.165 3.241-.66 3.324-1.813l1.08-12.606c.084-.824-.083-1.154-2.742-1.236-.166-.577 0-1.236 1.163-1.236h5.485l6.815 12.853L79.114.643h6.316V.561zM100.304.56c.083.248.083.742 0 1.072-2.826.165-3.407.412-3.407 2.142V15.64c0 .906.498 1.153 1.246 1.153h1.746c1.994 0 2.243-.165 3.406-2.554l.748-1.648c.749 0 1.164.33.915 1.154-.582 1.565-1.081 3.13-1.413 4.778H90.332c-.083-.33-.083-.659 0-1.07 2.659-.166 3.24-.495 3.24-2.225V2.95c0-.989-.332-1.153-1.495-1.153h-1.33c-.166-.66 0-1.236 1.164-1.236h8.393zM122.244.56c.083 1.237.25 2.472.416 3.626.166.824-.166 1.318-1.08 1.236l-.25-1.236c-.498-1.648-.997-2.06-2.492-2.06h-4.322v6.839h2.826c.831 0 .997-.247 1.08-.989l.166-1.4h.333c.498 0 .831.164.747.988a55.86 55.86 0 000 5.273c-.249.082-.664.165-.913 0-.333-2.06-.665-2.307-1.413-2.307h-2.826v4.697c0 .988.249 1.4 2.077 1.4h2.328c1.994 0 2.243-.165 3.406-2.554l.749-1.648c.748 0 1.163.33.914 1.154-.582 1.565-1.081 3.13-1.413 4.779h-14.875c-.083-.33-.083-.66 0-1.072 2.825-.164 3.407-.33 3.407-2.142V2.785c0-.988-.25-1.153-1.496-1.153h-1.33c-.083-.66 0-1.236 1.164-1.236h12.797V.56zM128.892 1.797h-1.329c-.166-.66 0-1.236 1.08-1.319 1.33-.082 2.909-.082 6.732-.082 5.152 0 8.061 2.472 8.061 6.097 0 2.225-1.413 4.037-3.657 5.026 0 0 1.995 1.813 3.075 2.636 3.573 2.802 4.737 3.049 7.064 3.049.249.906-.416 1.648-3.325 1.648-2.492 0-4.154-.577-6.149-2.225-.914-.741-1.828-1.812-2.576-3.048-.665-1.236-.748-1.319-2.41-1.319h-1.662v3.955c0 .742.249 1.071 1.662 1.071h1.413c.083.742 0 1.236-.748 1.236h-8.477c-.083-.33-.083-.659 0-1.07 2.327-.166 2.909-.413 2.909-2.06V3.031c-.166-1.07-.498-1.235-1.663-1.235zm6.15 8.98c2.66 0 4.82-.412 4.82-4.037s-2.16-4.779-5.236-4.779h-.83v8.816h1.246z" fill="#1D1D1B"/></svg><svg fill="none" viewBox="0 0 36 36" id="g2" xmlns="http://www.w3.org/2000/svg"><path d="M18.23.257c1.164 0 2.457 0 3.62.386l-3.62 7.071C12.8 7.33 8.016 11.7 7.628 17.357c-.258 5.658 3.88 10.543 9.439 10.8h1.163c2.457 0 4.784-.9 6.594-2.442l3.879 6.814A17.735 17.735 0 0118.101 36C8.533 36.257.388 28.93 0 18.9-.259 9 6.982.643 16.679.257h1.551z" fill="#1D1D1B"/><path d="M22.11 15.557l-4.526 7.714h8.792l4.137 7.458 4.525-7.458-4.525-7.714H22.11zM23.273 12.729c0-1.286.258-2.443.905-3.472.646-.9 1.81-1.928 2.715-2.443l.646-.385c1.164-.643 1.552-.9 1.552-1.543 0-.643-.905-1.286-1.552-1.286-1.163 0-2.198.643-2.715 1.929l-1.551-1.415c.258-.642.905-1.285 1.551-1.928.905-.643 1.81-.643 2.715-.643.905 0 2.198.386 2.715.9.518.643 1.164 1.543 1.164 2.443 0 1.543-.905 2.828-2.715 3.471L27.798 9c-.905.643-1.552.9-1.81 1.929h5.43v2.185c0-.128-8.145-.385-8.145-.385z" fill="#1D1D1B"/></svg><svg fill="none" viewBox="0 0 130 28" id="lokalise" xmlns="http://www.w3.org/2000/svg"><path d="M24.275 17.4h-7.846l-4.292 4.291-4.29-4.29H0v4.29h6.068l3.035 3.035 3.034 3.034 3.035-3.034 3.034-3.035h6.069v-4.29z" fill="#FF6336"/><path d="M24.275 8.816H0v4.292h24.275V8.816z" fill="#FFC500"/><path d="M24.275.234H0v4.292h24.275V.234z" fill="#A4A14A"/><path d="M33.926.234h3.86v21.058h-3.86V.234zM43.795 20.692a7.651 7.651 0 01-2.895-2.764 7.28 7.28 0 01-1.068-3.86c0-1.404.355-2.69 1.068-3.861a7.655 7.655 0 012.895-2.764 8.064 8.064 0 013.963-1.01c1.423 0 2.744.337 3.963 1.01a7.668 7.668 0 012.896 2.764 7.291 7.291 0 011.067 3.86c0 1.404-.355 2.69-1.067 3.861a7.673 7.673 0 01-2.896 2.764 8.068 8.068 0 01-3.963 1.01 8.065 8.065 0 01-3.963-1.01zm5.996-3.07a3.897 3.897 0 001.477-1.448c.37-.624.556-1.326.556-2.106 0-.78-.186-1.481-.556-2.106a3.898 3.898 0 00-1.477-1.447 4.116 4.116 0 00-2.033-.513c-.741 0-1.418.171-2.033.512a3.9 3.9 0 00-1.477 1.448c-.371.624-.555 1.327-.555 2.106 0 .78.184 1.482.555 2.106a3.89 3.89 0 001.477 1.448 4.113 4.113 0 002.033.512c.74 0 1.418-.171 2.033-.512zM57.73.234h3.861v12.547l5.03-5.937h4.591l-5.673 6.698 6.083 7.75H66.68l-5.089-6.698v6.698h-3.86V.234zM75.264 20.766c-1.082-.624-1.96-1.516-2.632-2.676-.672-1.16-1.009-2.5-1.009-4.022 0-1.384.322-2.661.965-3.83a7.358 7.358 0 012.633-2.779 6.852 6.852 0 013.655-1.023c.936 0 1.79.156 2.559.467.77.312 1.36.732 1.77 1.258V6.844h3.86v14.448h-3.86v-1.316a6.686 6.686 0 01-1.931 1.287c-.683.292-1.56.439-2.633.439-1.169 0-2.294-.312-3.377-.936zm7.034-3.802c.721-.78 1.082-1.744 1.082-2.895 0-1.15-.36-2.115-1.082-2.896-.721-.78-1.677-1.17-2.866-1.17-1.19 0-2.145.392-2.867 1.17-.72.78-1.081 1.746-1.081 2.896s.36 2.116 1.081 2.895c.722.78 1.677 1.17 2.867 1.17s2.145-.39 2.866-1.17zM89.873.234h3.86v21.058h-3.86V.234zM96.747 4.153a2.311 2.311 0 01-.702-1.697c0-.682.234-1.262.702-1.74A2.29 2.29 0 0198.443 0c.682 0 1.262.24 1.74.716.477.478.717 1.058.717 1.74 0 .663-.239 1.229-.717 1.697a2.395 2.395 0 01-1.74.702 2.309 2.309 0 01-1.696-.702zm-.205 2.69h3.86v14.448h-3.86V6.845zM103.035 20.295l.878-3.627h.175c1.267.975 2.564 1.463 3.89 1.463.546 0 .989-.103 1.331-.307.341-.205.512-.502.512-.892 0-.41-.201-.741-.6-.994-.4-.254-1.146-.566-2.237-.937-1.111-.37-1.974-.906-2.588-1.608-.614-.702-.922-1.53-.922-2.486 0-1.345.502-2.428 1.506-3.247s2.276-1.228 3.817-1.228c.78 0 1.472.073 2.077.219a6.058 6.058 0 011.725.716l.147 3.685h-.205c-.702-.448-1.326-.784-1.872-1.008-.546-.224-1.16-.337-1.842-.337-.488 0-.888.098-1.199.292-.312.195-.468.45-.468.761 0 .41.195.746.585 1.01.389.263 1.121.58 2.193.95 1.228.41 2.159.907 2.793 1.492.634.584.951 1.491.951 2.72 0 1.014-.254 1.882-.761 2.603a4.678 4.678 0 01-2.004 1.623c-.828.36-1.74.541-2.734.541-2.009 0-3.725-.468-5.148-1.404zM119.12 20.676a7.54 7.54 0 01-2.851-2.793c-.693-1.18-1.039-2.49-1.039-3.933 0-1.404.327-2.676.98-3.817a7.185 7.185 0 012.721-2.705c1.159-.663 2.471-.994 3.933-.994 1.481 0 2.764.346 3.846 1.038a6.67 6.67 0 012.456 2.764A8.426 8.426 0 01130 13.95v1.141h-11.085c.234 1.092.736 1.92 1.506 2.486.771.566 1.789.848 3.057.848 1.93 0 3.616-.634 5.059-1.901h.41l-.147 3.655c-.877.508-1.803.888-2.778 1.141-.975.254-1.911.38-2.808.38-1.52 0-2.885-.341-4.094-1.024zm7.02-8.218c-.098-.878-.464-1.565-1.097-2.062-.634-.497-1.409-.746-2.325-.746-.897 0-1.682.24-2.355.717-.672.477-1.126 1.175-1.36 2.09h7.137z" fill="#000"/></svg><svg fill="none" viewBox="0 0 90 21" id="lokalise-text" xmlns="http://www.w3.org/2000/svg"><path d="M0 .229h3.527v20.378H0V.23zM9.558 20.026a7.176 7.176 0 01-2.645-2.676c-.653-1.133-.976-2.379-.976-3.735 0-1.36.327-2.603.976-3.735a7.203 7.203 0 012.645-2.676 7.061 7.061 0 013.62-.977c1.302 0 2.507.327 3.621.977a7.177 7.177 0 012.646 2.676c.649 1.132.975 2.379.975 3.735 0 1.36-.326 2.602-.975 3.735a7.227 7.227 0 01-2.646 2.676 7.061 7.061 0 01-3.62.977 7.08 7.08 0 01-3.62-.977zm5.478-2.974a3.683 3.683 0 001.35-1.4c.337-.603.507-1.284.507-2.037 0-.754-.17-1.434-.507-2.036a3.681 3.681 0 00-1.35-1.4 3.592 3.592 0 00-1.857-.497c-.677 0-1.295.165-1.857.496-.563.33-1.01.798-1.35 1.4-.341.603-.508 1.283-.508 2.037 0 .753.17 1.434.507 2.036.337.603.788 1.07 1.35 1.4.563.332 1.18.497 1.858.497.677 0 1.295-.165 1.857-.496zM22.83.229h3.527v12.14l4.596-5.745h4.197l-5.186 6.48 5.56 7.5H31.01l-4.652-6.48v6.48H22.83V.229zM38.85 20.095c-.989-.603-1.79-1.466-2.405-2.588-.615-1.12-.923-2.418-.923-3.892 0-1.338.295-2.577.881-3.71.587-1.131 1.389-2.028 2.406-2.69a5.996 5.996 0 013.34-.992c.853 0 1.634.15 2.339.452.705.301 1.243.706 1.618 1.216V6.62h3.527v13.982h-3.527v-1.271a6.107 6.107 0 01-1.764 1.246c-.621.283-1.426.426-2.405.426-1.07-.003-2.097-.305-3.087-.908zm6.43-3.68c.659-.753.989-1.686.989-2.8 0-1.114-.33-2.048-.99-2.801-.66-.754-1.534-1.132-2.62-1.132-1.087 0-1.962.378-2.621 1.132-.66.753-.99 1.69-.99 2.8 0 1.114.33 2.048.99 2.802.66.753 1.53 1.132 2.62 1.132 1.087 0 1.962-.379 2.621-1.132zM52.736.229h3.527v20.378h-3.527V.23zM59.55 4.017c-.427-.452-.642-1-.642-1.643 0-.661.215-1.22.642-1.683.427-.463.945-.695 1.552-.695.625 0 1.153.232 1.59.695.437.463.656 1.025.656 1.683 0 .644-.219 1.188-.656 1.643-.437.453-.968.68-1.59.68-.607 0-1.121-.224-1.552-.68zm-.187 2.607h3.527v13.983h-3.527V6.623zM65.299 19.643l.802-3.51h.16c1.159.945 2.343 1.415 3.554 1.415.5 0 .903-.1 1.215-.298a.96.96 0 00.469-.863c0-.398-.184-.717-.549-.963-.364-.247-1.048-.548-2.044-.905-1.018-.356-1.806-.878-2.364-1.558-.56-.68-.844-1.482-.844-2.404 0-1.302.458-2.35 1.378-3.143.917-.794 2.08-1.187 3.489-1.187.712 0 1.347.07 1.899.213a5.355 5.355 0 011.576.694l.132 3.566h-.188c-.642-.434-1.211-.76-1.711-.978a4.181 4.181 0 00-1.684-.327c-.444 0-.812.096-1.097.283-.284.188-.427.434-.427.735 0 .397.177.72.535.978.357.254 1.024.563 2.006.919 1.122.397 1.972.879 2.552 1.445.58.566.868 1.444.868 2.632 0 .981-.233 1.82-.695 2.517a4.342 4.342 0 01-1.83 1.57c-.756.35-1.589.522-2.499.522-1.836.004-3.405-.448-4.703-1.353zM80.002 20.01a7.122 7.122 0 01-2.607-2.7c-.632-1.144-.948-2.412-.948-3.809 0-1.36.299-2.591.896-3.694a6.765 6.765 0 012.485-2.617c1.06-.64 2.26-.963 3.597-.963 1.353 0 2.527.334 3.513 1.003.99.67 1.735 1.562 2.246 2.676a8.579 8.579 0 01.763 3.595v1.103H79.818c.215 1.058.673 1.86 1.378 2.404.705.547 1.635.82 2.794.82 1.764 0 3.305-.614 4.624-1.838h.375l-.132 3.536a9.69 9.69 0 01-2.54 1.102 9.623 9.623 0 01-2.566.368c-1.399.004-2.645-.323-3.75-.985zm6.415-7.954c-.09-.849-.424-1.514-1.003-1.996-.58-.481-1.288-.72-2.125-.72-.819 0-1.538.232-2.152.695-.614.463-1.027 1.136-1.243 2.025h6.523v-.004z" fill="#221F1F"/></svg><svg fill="none" viewBox="0 0 138 53" id="specialized" xmlns="http://www.w3.org/2000/svg"><path d="M22.174 9.864c-.466-.392-.933-.392-1.477.078-2.564.94-7.383 4.228-8.55 3.993C14.092 11.273 16.19 8.69 18.6 6.34c1.01-1.41-.311-1.722-.466-2.505-.311-1.018-.156-2.114.155-3.053.466-.783-.466-.94-1.01-.627C10.982 6.732 5.618 13.308.645 19.963c-.777 1.017-.622 1.8-.078 2.427l2.643 3.366c.544.94 1.399 1.096 2.487.392l8.316-5.637c-3.342 5.48-6.528 11.665-8.938 19.18-1.088 3.21 1.943 8.063 6.062 13.152.467.548 1.4 0 .778-1.096-3.964-7.437-.7-18.945 12.047-35.933.621-.705.855-1.41.388-2.114l-2.176-3.836zM54.972 19.65l1.088-4.228c.233-.627.7-.94 1.321-1.018H62.2l.622-1.957H61.19l-5.13.078c-1.088-.078-1.943.313-2.487 1.566l-2.798 10.96-1.088 4.306c-.311.94-.078 1.722 1.088 2.035.078 0 .233.078.31.078h6.53l.543-1.957h-4.974c-.388-.313-.7-.313-.544-1.252l1.166-4.62c.156-.547.466-.939 1.01-.939h3.809l.544-1.644h-3.886c-.467-.313-.544-.783-.311-1.409zM62.666 28.262c2.565-10.1 1.01-4.071 3.342-12.84.233-.626.7-.939 1.321-1.017H72.07l.467-1.566.155-.47H65.93c-1.088-.078-2.02.313-2.487 1.566l-2.331 9.16-1.555 6.028c-.31 1.096-.078 1.878 1.4 2.113h6.527l.545-1.957h-4.974c-.234 0-.544-.078-.389-1.017zM37.64 22.311l-3.73-3.288c-.777-.94 0-4.462 1.632-4.54h5.518l.467-1.88H34.53c-2.175.392-3.963 4.933-3.108 7.125l3.808 3.444c.544.627.622 1.175.622 1.801l-1.088 3.758c-.233.94-.855.94-1.632.94h-5.13l-.466 1.8h7.539c1.166-.078 1.865-.783 2.02-1.957l1.244-4.776c.311-1.096-.078-1.879-.7-2.427zM50.23 21.763l.545-2.27 1.165-4.776c.156-1.252-.233-1.957-1.165-2.113-.156-.079-.311-.079-.467-.079h-7.383l-3.187 11.978-1.865 6.968h2.565l4.585-16.989h3.031c.622.157 1.01.47 1.01 1.097l-1.243 5.166c-.155.862-.7 1.41-1.632 1.723l-2.332.47-.388 1.8 5.052-.94c.855-.234 1.554-.86 1.71-2.035zM77.123 12.525h-3.031l-1.555 5.715-1.71 6.341-1.865 6.89H71.993l.544-2.114 4.586-16.832zM104.014 12.525H101.061l-5.208 18.946h3.032l3.264-11.9 1.865-7.046zM117.304 23.643c.156-.548.467-.94 1.011-.94h3.808l.544-1.644h-3.964c-.466-.313-.544-.783-.311-1.409l1.166-4.227c.234-.627.699-.94 1.321-1.018h4.82l.387-1.253.233-.783h-6.683c-1.088-.078-2.021.313-2.487 1.566l-2.799 10.96-1.087 4.306c-.311.94-.078 1.722 1.087 2.035.078 0 .234.079.311.079h6.529l.544-1.957h-5.052c-.388-.314-.699-.314-.544-1.253l1.166-4.462zM136.425 12.525h-8.939l-1.476 5.324-1.71 6.341-1.943 7.202h9.094c1.32-.078 2.098-.782 2.409-2.113l4.042-15.11c.155-.94-.389-1.565-1.477-1.644zm-1.788 3.445l-3.342 11.743c-.077.94-.699 1.566-1.943 1.644h-3.186c-.078 0-.156 0-.233-.078-.311-.157-.311-.548-.156-.94l.156-.548 3.963-13.543h3.886c1.01.078 1.166.704.855 1.722zM104.635 28.026l9.56-12.29.699-.94c.856-1.253.545-2.192-.699-2.192h-8.782l-.078 1.722h5.363c.699 0 1.088.313.622.94L102.148 27.4l-1.554 2.035c-.622.94-.388 1.645.7 2.114h9.481l.545-2.114h-6.529c-.622-.156-.7-.939-.156-1.409zM82.408 12.604l-9.871 18.632-.156.313H74.713l7.772-14.874.7.078.388 4.149c.311 1.018-.388.94-.621.94h-2.177l-.388 1.565 2.565.078c.466.079.7.314.621.783l.467 7.046h2.642l-1.088-18.789-3.186.079zM90.724 28.026l4.197-15.5H91.89L87.382 29.2c-.078.94.31 1.957 1.554 2.27h5.984l.622-2.035-4.274-.078c-.544-.078-.777-.548-.544-1.33z" fill="#1D1D1B"/></svg><svg fill="none" viewBox="0 0 128 20" id="stars-evaluate" xmlns="http://www.w3.org/2000/svg"><path fill-rule="evenodd" clip-rule="evenodd" d="M9.974 0L7.571 7.313H0l6.249 4.666-2.404 7.44 6.13-4.666 6.248 4.665-2.403-7.44 6.128-4.665h-7.57L9.974 0zM36.294 0L33.89 7.313H26.2l6.128 4.666-2.283 7.44 6.249-4.666 6.128 4.665-2.403-7.44 6.249-4.665h-7.691L36.294 0zM63.572 0l-2.404 7.313h-7.57l6.249 4.666-2.404 7.44 6.129-4.666 6.249 4.665-2.404-7.44 6.13-4.665h-7.572L63.572 0zM90.97 0l-2.283 7.313h-7.69l6.128 4.666-2.404 7.44 6.25-4.666 6.128 4.665-2.283-7.44 6.249-4.665h-7.691L90.97 0zM117.166 0l-2.404 7.313h-7.571l6.129 4.666-2.283 7.44 6.129-4.666 6.249 4.665-2.404-7.44 6.129-4.665h-7.691L117.166 0z" fill="#000"/></svg><svg fill="none" viewBox="0 0 150 21" id="tidal" xmlns="http://www.w3.org/2000/svg"><path d="M55.106 19.942H51.37V6.723h-4.879V3.55h13.492v3.173h-4.878v13.22zM75 3.55H71.19v16.392H75V3.55zM141.774 16.694h6.555v3.248h-10.367V3.55h3.812v13.144zM91.237 16.77H93.6c3.125 0 5.26-1.964 5.26-5.061 0-2.946-2.135-4.91-5.184-4.91h-2.44v9.97zM87.578 3.55h6.098c4.498 0 8.994 2.342 8.994 8.159 0 5.439-4.42 8.233-8.766 8.233h-6.326V3.55zM116.543 13.824l2.516-6.421 2.439 6.42h-4.955zm7.242 6.118h4.192l-6.86-16.392h-3.888l-6.86 16.392h4.04l1.22-3.248h7.012l1.144 3.248zM16.334 1.163l-4.85 4.808 4.851 4.807 4.85-4.808-4.85-4.807z" fill="#282828"/><path d="M16.323 10.762l-4.851 4.808 4.85 4.807 4.852-4.807-4.851-4.808zM6.65 1.151L1.8 5.958l4.85 4.808 4.85-4.808-4.85-4.807zM26.02 1.175l-4.85 4.808 4.852 4.807 4.85-4.808-4.852-4.807z" fill="#282828"/></svg><svg fill="none" viewBox="0 0 72 53" id="virgin-mobile" xmlns="http://www.w3.org/2000/svg"><path d="M13.587 29.501v-.064-.064-.063-.128c0-.064.064-.064.064-.128v-.127-.064-.064-.064-.064l-.064-.064v-.064c0-.127.064-.255.064-.447v-.191h.063c.064 0 .064-.064.064-.064 0-.064 0-.064.064-.128v-.064h-.064v-.063c0-.064 0-.064.064-.064l.064-.064v-.064-.064-.064l.064-.064v-.127c0-.064-.064 0-.064-.064v-.256c0-.063 0-.063.064-.127V26.5v-.064-.191-.192l.064-.064v-.128-.127s0-.064.064-.064v-.064-.128-.127-.192c0-.064 0-.128.063-.191 0-.064 0-.064.064-.128 0 0 0-.064.064-.064 0 0-.064 0-.064-.064l.064-.064v-.128-.127l.064-.064v-.064-.128-.191-.192h.064v-.128-.191-.064-.064-.064-.127-.128-.128-.064-.127-.128h.064v-.128s0-.064.064-.064v-.063-.064-.064-.128l.063-.064v-.127-.128l.128-.128v-.064-.064-.063-.128c0-.064.064-.064.064-.064v-.064-.128-.127-.128l.064-.064c0-.064.064-.064.064-.064h.127l.064-.064v-.127-.064-.192-.064-.063-.128c0-.064.064-.064.064-.064v-.128-.127-.128-.128-.127-.192-.128-.064l.064-.064v-.127-.128s.064 0 .064-.064v-.128c0-.063.064-.127.128-.191.063-.064.063-.128.127-.192s.064-.127.128-.255v-.128c0-.064 0-.064.064-.127 0-.064.064-.128.064-.192v-.128-.127c0-.064.064-.064.064-.128v-.064l.063-.064c.064 0 .064-.064.064-.064 0-.064 0-.127.064-.191h.064v-.128c0-.064-.064-.064-.064-.128v-.127-.064-.064c0-.064.064-.064.064-.128v-.191s0-.064.064-.064l.064-.064v-.128-.064-.127c0-.064.064-.064.064-.128 0 0 .063-.128 0-.128v-.127c0-.064 0 0 .063 0 .064 0 0 0 0 0v-.064-.128c0-.064.064-.128.064-.128v-.064-.127c0-.064 0-.064.064-.128 0-.064 0-.064.064-.064s.064-.064.064-.128v-.063-.192l.064-.064v-.064-.064s0-.064.063-.064v-.063h.064v-.064-.064l.064-.064v-.064-.191-.128-.128s0-.064.064-.064v-.064c0-.063 0-.063.064-.127v-.064h.064v-.128h.064v-.064-.319l.064-.064v-.127s0-.064.063-.064v-.064l.064-.064v-.064c0-.064 0-.064.064-.128l.064-.063c0-.064.128-.128.128-.192s.064-.064.064-.128v-.064s-.064 0 0-.063c0 0 .063-.064.063-.128.064-.064 0-.064.064-.128l.064-.064v-.319s.064-.064 0-.064c0-.064.064-.128.064-.128 0-.063.064-.063.064-.127s.064-.128.064-.192c0 0 0-.064.064-.064v-.064c0-.063.063-.063.063-.127v-.128c.064 0 0-.064.064-.064v-.064c0-.064.064-.064.064-.127V8.94v-.064h.064v-.064c0-.064 0-.064.064-.064v-.064c.064 0 .064-.191.127-.191.064-.128.128-.256.192-.447.064-.064.064-.192.128-.256 0 0 0-.063.064-.063v-.064c0-.064.064-.128.064-.128v-.064c0-.064 0-.064.063-.128.064-.063.064-.127.064-.191v-.064-.064s0-.064.064-.064v-.064s0-.063.064-.063v-.064c0-.064.064-.064.064-.128v-.064c0-.064.064-.064.064-.128 0-.063.063-.063.063-.127 0 0 .064 0 .064-.064 0 0 0-.064.064-.064 0-.064 0-.192.064-.192V5.94l.064-.064c-.064-.064 0-.064.064-.128 0 0 .064 0 .064-.064V5.62c0-.064.063-.064.063-.127 0-.064 0-.064.064-.128l.064-.064c0-.064.064-.064.064-.128a.882.882 0 00.192-.255s0-.064.063-.064h.064s0-.064.064-.064c0-.064 0-.064.064-.064l.064-.064.064-.063.064-.064s0-.064.063-.064c0 0 .064 0 .064-.064v-.064-.064-.064l.064-.063v-.064h.064v-.064h.064v-.064h.064s.064-.064.064-.128h.127c.064 0 0-.064.064-.064h.064v-.063-.064-.064h.064v.128h.064V3.64l.064-.064v-.128h.063v-.064s.064 0 0 0v.064h.064v-.064h.128V3.32v-.127-.064s.064.064.064 0v-.064-.064-.127-.128l.064-.064h.064s-.064-.064 0-.064v-.064h.063V2.49v-.063-.064l.064-.064.064-.064v-.064s0-.064.064-.064v-.064l.064-.063v-.064-.064-.128-.064-.127-.128-.064-.064-.064-.064-.127-.447-.128c0-.064 0-.064-.064-.064V.32.128 0c0-.064-.064-.064-.064-.064v-.064l-.064-.064v-.063c0-.064-.064-.064-.064-.128v-.064l-.064-.064c-.063-.064-.063-.128-.127-.191l-.064-.064V-.83h-.064s-.064 0-.064-.064v-.064h-.064-.064l-.063-.064h-.064s-.064 0-.064-.064c-.064 0-.064-.063-.128-.063s-.064 0-.127-.064h-.128-.064l-.064-.064h-.702-.32c-.063 0-.063.064-.127.064s-.064 0-.128.064c-.064 0-.064.063-.128.063-.191.064-.383.256-.574.384C20.1.638 20.036.638 19.972.702v.064h-.064s-.063.064 0 .064c-.063 0-.063.064-.063.064 0 .064-.064 0-.064.064 0 0 0 .064-.064.064l-.128.127-.128.128c-.063.064-.127.192-.191.256 0 .063-.064.127-.064.191-.064 0-.128.192-.191.256-.064.063-.064.191-.128.255-.064.192-.128.383-.256.575-.064.127-.064.191-.127.319-.064.128-.128.191-.128.32 0 .127-.064.255-.128.382-.064.128-.064.256-.128.32-.063.191-.191.383-.255.574-.064.128-.064.192-.128.32-.063.127-.063.191-.127.319-.064.191-.128.447-.192.638 0 .064-.064.128-.128.192 0 .064-.063.192-.063.255-.064.128-.128.32-.192.447a4.4 4.4 0 01-.192.511c-.064.256-.191.447-.255.703a.484.484 0 01-.128.255c0 .128-.064.192-.128.32-.063.127-.127.255-.127.382-.064.128-.064.32-.128.447-.064.192-.128.32-.192.511-.063.192-.127.447-.191.639-.192.51-.383 1.022-.51 1.532 0 .064 0 .064-.065.128 0 .064 0 .064-.064.128 0 .064-.063.064-.063.127-.064.064-.064.064-.064.128 0 .128-.064.192-.064.32 0 .191-.064.255-.128.447 0 .063-.064.127-.064.255-.064.128-.191.255-.191.447 0 .128-.064.191-.128.32 0 .127-.064.19-.064.319 0 .063-.064.191-.064.255-.064.064-.064.191-.127.255-.064.128 0 .192-.064.32-.064.127-.128.191-.128.319v.32c0 .063-.064.127-.064.127 0 .064-.064.128-.064.191v.192c0 .064-.064.128-.064.192-.063.255-.127.574-.255.83-.064.127-.064.255-.128.447-.063.127-.127.255-.127.383-.064.255-.128.575-.192.83 0 .128-.064.192-.064.32v.127c0 .064-.064.128-.064.192 0 .063 0 .127-.064.191-.063.128-.127.255-.127.383-.064.32-.192.575-.256.83-.063.256-.127.447-.191.703 0 .127 0 .191-.064.319a.487.487 0 01-.128.32c0 .063-.064.127-.064.255v.127c0 .064-.063.064-.063.064v.192c-.064.064 0 .128-.064.191 0 .128-.064.256-.128.447-.064.192-.128.447-.192.639 0 .128-.063.255-.063.32-.064.19-.064.446-.128.638 0 .127-.064.191-.064.319s-.064.192-.064.32c0 .063-.064.255-.064.319-.064.063-.064.191-.064.319s0 .191-.063.32c-.064.127-.064.318-.128.446 0 .128-.064.255-.064.383s-.064.192-.064.32c0 .127-.064.319-.064.51l-.191.958c0 .128-.064.256-.064.447 0 .192-.064.447-.128.639 0 .064-.064.128-.064.255 0 .192-.064.32-.064.511-.063.32-.063.639-.191.894 0 .128-.064.255-.064.32-.064.382-.128.83-.192 1.212 0 .192-.063.384-.063.575v.511l-.064.064v.128c0 .127-.064.255-.064.383H9.5v.127c-.064 0 0 .064-.064.128-.064 0-.064-.064-.064-.064-.064-.064-.064-.064-.127-.064 0-.063 0-.063-.064-.127v-.064c0-.064.064-.192 0-.255 0-.064-.064-.064-.064-.128s.064-.064 0-.128c0-.128-.064-.128-.192-.128 0-.063.064-.063.064-.063v-.128-.256-.191c0-.064-.064-.128-.064-.192s-.064-.127-.064-.191l.064-.064v-.128c0-.128.064-.064.064-.191-.064-.192 0-.128 0-.256 0-.064 0-.128-.064-.191l-.064-.064c-.063 0 0-.064-.063-.064v-.064h0c-.064.064-.064 0-.064-.064v-.064s-.064 0 0-.064l.127-.063h-.063c0 .063-.064 0-.064 0v-.128-.128-.064l.064-.064v-.063c-.064-.064 0 0 0-.064v-.192-.128-.127c0-.064-.064-.064-.064-.128v-.128l-.064-.064v-.063s-.064-.064 0-.064v-.128s0-.064-.064-.064v-.064c0-.064-.064-.127-.064-.191v-.192-.319s0-.064-.064-.064l-.064-.064c0-.064 0-.128-.063-.128v-.191s-.064-.064 0-.064h.063v-.064c0-.064-.063-.128-.063-.128-.064-.063-.064-.063-.064-.127v-.128-.128-.127c0-.064 0-.064-.064-.064v-.128l-.064-.064c-.064-.064-.064-.127-.064-.191v-.064s-.064 0-.064-.064.064 0 0-.064h-.064v-.064-.064s.064-.063 0-.063c0-.064-.063-.064-.063-.064-.064 0-.064 0-.064-.064v-.128-.192-.191h-.064c0-.128-.064-.255-.064-.383v-.064c0-.064 0-.064-.064-.064-.064-.064-.064-.128-.064-.191v-.128-.192s.064 0 .064-.064h-.064v-.063-.064-.064-.192-.191-.064s.064-.064 0-.064v-.064-.128c0-.063 0-.063.064-.063 0 0 .064 0 .064-.064v-.256s-.064 0-.064-.064c0 0 .064 0 .064-.063v-.064s.064 0 .064-.064l-.064-.064c-.064 0-.064 0-.128-.064v-.127c0-.064.064-.064.064-.064v-.064l-.064-.064v-.128h.064c0-.064 0-.064-.064 0H7.52v-.064h.064v-.064H7.52s-.063-.127 0-.127h.064v-.064-.064s-.064 0-.064-.064v-.191-.064c0-.064-.063-.064-.063-.128v-.192-.127-.064-.064c0-.064-.064-.128 0-.191v-.128-.128-.255-.192l-.064-.064v-.127-.064-.128c0-.064 0-.064-.064-.128v-.191-.064-.064-.064-.128-.255-.128-.255-.256c0-.063 0-.191-.064-.255v-.128c0-.064 0-.064-.064-.127 0-.064-.064-.192-.064-.256s0-.064-.063-.064v-.064-.127c0-.064-.064-.064-.064-.128v-.128l-.064-.063s0-.064-.064-.064l-.064-.064-.064-.064-.064-.064c-.063-.064-.127-.064-.127-.064h-.064c-.064 0-.064 0-.128-.064h-.383-.383c-.064 0-.064 0-.128.064h-.064l-.064.064h-.063c-.064 0-.064 0-.128.064-.064 0-.064.064-.064.064-.064.064-.128.064-.192.128-.063.063-.127.063-.127.127-.064.064-.128.128-.128.256-.064.127-.128.191-.128.319-.064.128-.064.255-.127.383v.064l-.064.064c0 .064 0 .127-.064.191 0 0 0 .064-.064.064v.064c0 .064-.064.064-.064.128v.191c-.064.128-.064.256-.128.383 0 .064 0 .064-.063.064v.064c0 .064-.064.128-.064.192s-.064.127-.064.127c-.064.192-.128.447-.192.639 0 .064-.064.128-.127.192-.511.255-.511.255-.511.383 0 .064-.064.127-.064.255 0 .064-.064.128-.064.192-.064.064-.064.127-.064.191s-.064.128-.064.192v.191c0 .064-.064.192-.064.256-.063.127-.063.255-.127.383s-.064.255-.128.383c0 .128 0 .128-.064.192s-.064.127-.064.191c-.064.064-.127.128-.127.192s0 .127-.064.191c-.064.128-.128.256-.128.447 0 .128-.128.192-.192.32 0 .063-.063.127-.063.191v.256c-.064.063-.064.191-.128.255 0 0-.192.128-.064.128-.064.064-.128.064-.064.191l-.064.128v.191c-.063.192-.127.32-.191.511-.064.192-.192.384-.256.575h.064c0 .064 0 .128-.064.192 0 .064-.063.127-.063.191v.128l-.064.064c0 .064 0 .127-.064.191 0 .064 0 .128-.064.128 0 .064 0 .128-.064.192 0 .127-.064.191-.128.319-.063.128-.063.192-.127.32-.064.255-.128.51-.128.765 0 .128.064.256.128.384.127.191.255.383.447.447.064.063.191.063.255.127H1.774s.063 0 .063-.064h.064l.064-.063c.064 0 .064 0 .128-.064s.191-.064.255-.128l.128-.128s.064 0 .064-.064c0 0 0-.063.064-.063.063-.064.127.063.127 0v-.064c-.064-.064 0-.128 0-.192s0-.064.064-.064.064-.064 0-.127v-.064s.064 0 0-.064c0 0 .064 0 .064-.064v-.128c-.064.128-.064.128-.064.064v-.128c0-.063.064-.063.064-.127l.064-.064s-.064 0 0-.064c0-.064.064-.064.128-.128v-.063s.063 0 .063-.064v-.128c0-.064.064-.128.064-.192l.064-.064s.064 0 .064-.063c0-.064-.064 0-.064 0v-.064h.064v-.128h.064v-.128l.064-.064s.064 0 0 0 0-.063 0-.063l.064-.064v-.064-.064-.064c0-.064.063 0 .063-.064v-.064h-.063-.064v-.063s0-.064.064 0h.063v-.064s-.063 0 0 0h.064v-.064-.064-.128h.064v-.063h-.064c-.064 0 0 0 0-.064v-.064h.064v-.064c0-.064 0-.064.064-.064v-.064h.064v-.064-.063-.128-.192h-.064v-.064s.064 0 0 0v-.064s.064 0 .064-.063l.064-.064h-.064v-.064c0-.064 0 0 .064 0s0-.064 0-.064v-.064s.064-.064 0-.127c0 0 0 .063 0 0v-.064-.128h.127v.064c0-.064-.063 0-.063-.064H3.88v-.064-.128s.064.064.127.064v-.255h.064v-.064-.064-.064l.064-.064v-.063l.064-.064h.064v.064h.191v.063s0 .064.064.064h.064s.064 0 0 0v.128s-.064.064 0 .064v.064l.064-.064.064-.064c.064 0 .064 0 .064.064s0 .064-.064.064h-.064v.191s-.064 0 0 .064c0 0 .064 0 .064.064v.192c0 .063.064 0 .064.063v.064c-.064.064 0 .128 0 .192l.064.064h.063v.191h.064v.256c0 .064 0 .064-.064.127l.064-.063V29.31c0 .064 0 .127.064.191V31.29c.064 0 0 .192.064.128v.064s.064 0 .064.064V32.566c0 .128.064.256.064.383v1.788c0 .064 0 .128.064.192v.766c0 .064 0 .128.063.128v.128c0 .063.064.063.064.063V36.846c0 .063 0 .063.064.127v.32c-.064 0 0 0 0 .063V38.313l.064.064V39.08c0 .063 0 .127.064.127V39.91s-.064.064 0 .064v.255h.128l.063.064v.255c0 .064 0 .064-.063.064h-.128s.064 0 0 0c0 0-.064 0 0 .064h.255V41.634h-.064l.064.064V42.528h.064v.064c0 .063.064.063.064.063v.256s0 .064 0 0v.702l.064.064v.319c0 .064 0 .128.064.192v.702c-.064 0 0 0 0 .064v.256c0 .063 0 .063.064.063v1.341c0 .064 0 .064.063.128v.128c0 .064 0 .064.064.128v.255c0 .064.064.064.064.128h.064l.064.064.064.063v.064l.064.064.063.064h.064l.064.064h.064c.064 0 .064.064.128.064H7.648c.064 0 .064 0 .128-.064l.191-.064v-.064h.064l.064-.064h.192l.064-.064.063-.063.064-.064.064-.064v-.064l.064-.064v-.064-.063-.128c0-.064 0-.064.064-.128v-.128-.127-.128-.128-.255c0-.064 0-.128.064-.192 0-.064 0 0 .064-.064h-.064v-.063-.128-.256h.064v-.064-.127-.128-.128-.191-.383-.128-.128-.064-.064-.127-.128-.255-.128-.319-.064-.128-.128-.127-.256-.127-.064-.128-.128-.191-.064-.128c-.064 0 0-.064 0-.064v-.319-.191-.064-.128-.128-.191-.064-.319-.192s0-.064 0 0v-.128-.128-.191-.064-.064-.064-.127-.128-.128-.255-.128-.128-.127-.128c0-.064.063-.064 0-.064v-.128-.127-.511-.128c0-.064.063-.064.063-.128v-.127-.128-.128h.064v-.063-.064-.064-.064-.064-.192s0-.063.064-.063h.128l.064-.064v-.064-.064-.064-.064h-.064c3.256.83 3.256.83 3.256.767v-.064-.064-.064-.128-.064s0-.063.064-.063v-.128-.128-.127-.128-.128-.128-.127-.064-.128c0-.064.064 0 .064-.064v-.064s.064 0 .064-.064v-.127l.064-.064v-.128h.064v-.127-.128-.192h-.064v-.128-.063h-.064s-.064 0-.064-.064v-.064-.064-.064-.064-.063-.064-.128-.064-.064-.064-.063-.064-.064-.128-.128-.191h.064v-.064-.128-.127-.128-.064h.064l-.064-.064v-.064-.127l-.064-.064v-.064-.064c0-.064 0-.064.064-.064v-.064c.064-.064.064-.127 0-.191v-.192-.127l.064-.064-.064-.064v-.064-.064c0-.064 0-.128.064-.192l.064-.063v-.128-.064c0-.064 0-.064.064-.064v-.064-.127-.064-.064-.192h.063c.639.128.703.128.767.064-.064 0-.064.064 0 0 0 0-.064 0 0 0zM23.676 23.69s-.064 0 0 0c-.064 0-.064 0 0 0-.127 0-.191 0-.255.064-.064 0-.128.064-.192.064 0 0-.064 0-.064.064h-.063c-.064 0-.064 0-.064.063 0 0-.064 0-.064.064l-.064.064s-.064 0-.064.064h-.064c-.064.064-.191.128-.255.192l-.128.127c-.064.064-.064.064-.064.128 0 0 0 .064-.064.064 0 .064-.064.064-.064.128 0 .063-.063.127-.063.191s-.064.128-.064.192v.064c-.064.063-.064.127-.064.191s0 .128-.064.192c0 .127-.064.255-.064.383V26.627c.064 0 0 .064 0 .128v2.299s-.064.064 0 .064c-.064 0 0 .127 0 .127v.32l-.064.064c0 .063 0 .127-.064.191-.063 0-.063.192 0 .192v.064s-.063.063 0 .063c0 0-.063.256 0 .256v.064l-.063.064c0 .063 0 .063.064.127 0 .064-.064.128 0 .192v.255s0 .064-.064.064v.319s0 .064-.064.064V32.63c0 .064-.064.064-.064.127v.192c0 .064.064.064.064.128V34.418h.064v.127c0 .064.064.064.064.064l.063.064.064.064h.064v.064c.064 0 .064.064.064.064.064 0 .064 0 .064.064 0-.064.128 0 .128 0h.319c.064 0 .127-.064.127-.064s.128 0 .128-.064h.064c0-.064.128-.064.192-.064s.064-.064.127-.064l.064-.064h.192s.064 0 .064-.064c0 0 .064 0 .064-.063 0 0 .063 0 .063-.064l.064-.064h.064v-.064s0-.064.064-.064l.191-.191s0-.064.064-.064l.064-.064c.064-.064.064-.128.064-.128 0-.064.064-.064.064-.128 0-.063.064-.127.064-.127l.064-.128v-.128-.127-.192-.191-.32-.191c.063 0 .063-.064.063-.128v-.128s-.063-.064 0-.128c0-.063 0 0 .064-.063v-.192-.192-.255-.192s-.064-.063 0-.063v-.064-.128-.191-.192-.192-.063-.128c.064 0 0-.128 0-.128v-.191c0-.064.064-.064.064-.128v-.128-.191-.128h-.064v-.064s-.064 0 0-.064v-.064-.127c-.064 0 0-.064 0-.064v-.064-.064c.064 0 0-.064 0-.064s.064 0 .064-.064c0 0 0-.063.064-.063h.064v-.256s0-.064.064-.064v-.064c0-.064.064-.064.064-.064v-.063-.192c0-.064.063 0 .063-.064 0 0-.063 0-.063-.064v-.064c0-.063.063-.063.127-.063 0-.064-.064-.064-.064-.128v-.128c0-.064 0-.064.064-.128 0 0 0-.063.064-.063v-.064l.064-.064c.064-.064.064-.128.128-.128l.127-.127.128-.128c.064-.064.064-.128.128-.128l.064-.064v-.064h.064s.063 0 .063-.064l.064-.063s0-.064.064-.064h.064l.064-.064h.064c.063 0 .063-.064.063-.064l.064-.064c.064 0 .064-.064.128-.064l.128-.127.064-.064h.063l.064-.064s.064 0 .064-.064c.064 0 .128-.064.128-.064.064 0 .064-.064.064-.128h.064c.064-.063.127-.191.191-.191 0-.064.064-.064.064-.128 0 0 0-.064.064-.064 0 0 .064 0 .064-.063v-.064s0-.064.064-.064c0-.064.064-.128.064-.192-.064 0 0-.127 0-.191v-.128-.128l-.064-.064v-.063s0-.064-.064-.064c0 0 0-.064-.064-.064v-.064-.064-.064l-.064-.064s0-.063-.064-.063v-.064-.064l-.064-.064-.127-.128-.064-.063h-.064c-.064 0-.128-.064-.192-.064h-.319-.128s-.064-.064-.064 0v.064h-.063v-.064h-.064l.064.064-.064.063h-.128s-.064 0-.064.064c-.064 0-.064.064-.064.064h-.127-.064c-.064 0-.128 0-.128.064h.064v.064H25.4c-.064 0-.127.064-.127.064-.064 0-.064.064-.064.064-.064 0-.128.063-.192.063s-.128.064-.191.064h-.128c-.064 0-.128 0-.128.064h-.894c0 .064 0 0 0 0zM20.675 20.625c.064-.064 0-.127 0-.191v-.064c-.064 0-.064-.064-.064-.064 0-.064 0-.064-.064-.128v-.127-.064-.064l-.064-.064v-.128c0-.063 0-.127-.064-.063h-.063-.447v.063h-.064c-.064 0-.128.064-.128.064l-.064.064h-.064c-.063 0-.063.064-.127.064s-.064 0-.128.064l-.064.064c-.064.064-.191.127-.255.191l-.128.128c-.064.064-.064 0-.128.064 0 .064-.064.064-.127.127-.064 0-.064.064-.128.064-.064.064-.128.128-.128.192 0 0 0 .064-.064.064l-.064.064v.127s0 .064-.063.064l-.064.064v.128c0 .064-.064.064-.064.128V22.03l.064.064v.064c0 .064.064.064.064.128v.127h.064c0 .064 0 .064.063.128l.064.064h.192v.064s.064-.064.064 0h.191c.064 0 .064.064.128.064h.128v-.064l.063-.064h.064c0-.064.064 0 .064-.064 0 0 .064 0 .064-.064-.064-.064.128 0 .128-.064 0 0 0-.064.064-.064h.063s0-.063.064-.063c0 0 .064 0 .064-.064h.064s.064 0 .064-.064h.064s0-.064.064-.064l.127-.064.064-.064v-.064s0-.063.064-.063l.064-.064c.064 0 .064-.064.127-.064v-.128c0-.064.064-.064.064-.064.064 0 .064 0 .064-.063l.064-.064s0-.064.064-.064V21.2h.064v-.064c0-.064.064-.064.064-.127v-.128-.064-.064h.063s-.063 0-.063-.064c0 0 0-.064.063-.064-.255.064-.255.064-.191 0-.064 0-.064 0 0 0zM38.938 26.117c0 .064 0 .064.063.128l.128.127.064.064c.064 0 .128 0 .192.064h.383c.063 0 .255-.064.319-.064.064-.064.255-.127.32-.191.063-.064.127-.064.19-.128h.065v-.064h.063l.128-.128h.064v-.063h.064c.064 0 .064-.064.128-.128.063-.064.127-.064.127-.128l.192-.191c0-.064.064-.064.064-.128v-.128c0-.064.064 0 .064-.064.064 0 .064-.063.064-.127v-.128c-.064 0-.064 0 0 0v-.128s0-.064.063-.064v-.191l-.063-.064v-.128-.191-.256-.064s-.064 0 0-.063v-.192-.128-.319-.255-.064-.256l.127.064h.064v-.191h-.064v-.128h-.064v-.128h.064v.064h.064v-.064-.064-.064h-.064s-.064 0-.064-.063v-.128-.255h.064v-.064c0-.064-.064-.128 0-.128l.064-.064h.064V21.2v-.064-.063l.064-.064h.064v-.064s-.064 0-.064-.064v-.128-.128l-.064-.063v-.128h.064l-.064-.064v-.192s.064 0 .064-.063v-.064s0 .064-.064 0v-.064-.192h.064v-.127-.064h-.064v-.064s.064 0 .064-.064l-.064-.064v-.127c0-.064 0-.064.064-.064v-.064-.064-.128-.511-.063-.256-.064h.064-.064v-.064-.063s.064 0 0 0v-.128h-.064.128v-.192h-.064l.064-.064v-.127l-.064-.064h.064v-.064-.064-.128-.191-.256-.063h-.064v-.128s0-.064 0 0v-.064-.064-.064h-.128-.128-.127-.256s0 .064 0 0v-.064h-.064-.447l-.064.064s-.063.064-.127.064l-.128.128h-.064v.064s-.064 0-.064.064h-.063l-.064.127s-.064.064-.064.128c0 0 0 .064-.064.064l-.064.064v.064l-.064.127v.064l-.064.064v.255l-.064.128v.447l-.063.064v.639s0 .063 0 0V19.923h-.064v.639s0 .063.064.063v.384h-.064v.064h-.064V23.307s-.064.064 0 .064v.256c0 .064 0 .319-.064.319 0 .064-.064.128 0 .192v1.404c0 .064 0 .128.064.192-.766.255-.766.383-.703.383z" fill="#1D1D1B"/><path d="M59.563 20.05s-.064.064-.064 0c0-.063.064-.063.064-.063v-.064c0-.064 0-.064.063-.064v-.064-.064s-.063 0-.063-.064l.063-.063c0-.064-.063 0-.063-.064v-.128c-.064 0 0-.064-.064-.064 0 0-.064 0-.064-.064 0-.063-.064 0-.064-.063v-.064l-.064-.064c0-.064 0-.064-.064-.064l-.064-.064h-.063v-.064s0-.064-.064-.064l-.064-.064v.064s-.064 0-.128-.064c0 0 0-.063-.064-.063 0 .063-.063 0-.063 0 0 .063 0 .063.063.063h-1.149-.064-.128c-.063 0-.127 0-.191.064-.064 0-.128.064-.192.064h-.064c-.127.064-.191.064-.319.128-.064 0-.128.064-.128.064s0 .064-.063.064h-.064c-.064 0-.064.064-.128.064 0 .063-.064.063-.128.063-.063 0-.063.064-.127.064s-.064.064-.128.064c-.064.064-.128.064-.192.128h-.064l-.063.064h-.064c0 .064-.064.064-.064.064h-.064c.192.127.128.127.128.127l-.064.064h-.064s-.064 0-.128.064h-.063s-.064 0-.064.064h-.064c-.064 0-.064 0-.064.064 0 0-.064 0-.064.063-.064 0-.128.064-.128.064-.064 0-.127.064-.127.064h-.064c0 .064-.128.064-.128.064-.064 0-.128.064-.191.064-.128.064-.256.064-.32.128h-.127c-.064 0-.064-.064-.128 0-.064 0-.064-.064-.128-.064-.064-.064 0-.128-.064-.128 0 0-.064-.064-.128 0 0 0-.063 0-.063-.064v-.064c0-.064-.064 0-.064 0s-.064-.064 0-.064v-.063c-.064 0 0-.064-.064-.064 0 .064-.064.064-.064 0-.064 0 0 0-.064-.064h.064s-.064-.064 0-.064.064-.064.128-.128v-.064h-.128v-.063c-.064 0 .064-.128.064-.128h-.128v-.064-.128c0-.063 0-.063-.064-.063v-.064h.064v-.064c0-.064-.064 0-.064 0-.063 0-.063-.064-.063-.128h.063c.064-.064-.063 0-.063 0-.064 0 0-.064 0-.064h.063v-.064-.064s0-.063-.063-.063c-.064 0 0 .063 0 .063h-.064v-.191c.064 0 .064.064.064 0v-.192s0-.064-.064-.064V18.2s0-.064.064-.064v-.064-.064-.064-.127c0-.064.063 0 .063-.064s.064-.064 0-.064c0 0-.063 0-.127-.064v-.191-.064s.064 0 .064-.064 0-.064-.064-.064l-.064-.064v-.128-.064h.064c.064 0 0-.063 0-.063 0-.064 0-.064-.064-.064s-.064 0-.064-.064v-.128-.191-.192-.255-.256s.064-.064 0-.064v-.191h.128s-.064 0-.064-.064v-.064h-.064v-.128c0-.063 0-.063.064-.063s.064 0 .064-.064 0-.064-.064-.064-.064 0-.064-.064v-.192h.128s0 .064.064 0v-.063c-.064 0-.064 0-.064-.064s0-.064-.064-.128c0-.064-.064-.064 0-.064v-.127s.064 0 .064-.064h-.064c0-.064.064 0 .064 0v-.064s-.064 0-.064-.064c0 0 0-.064.064-.064l.064.064c.063 0 0-.064 0-.064-.064.064 0-.064-.064-.064v-.191-.064-.064c0-.064-.064.064-.128.064 0 0-.064.064-.064 0v-.064l.064-.064v-.064c-.064 0-.064-.064-.064-.064v-.127-.192s0-.064.064-.064h.192v-.064h-.128v-.063-.128s.064 0 .064-.064c0 0 .064 0 0-.064h-.064c-.064 0 0-.064-.064-.128l-.064-.064v-.191h.128c0-.064-.064-.128-.064-.128h-.064v-.064c0-.063-.064-.127-.064-.191 0 0 .064-.064 0-.064 0 0 0 .064-.064 0v-.128-.064l-.063-.064v-.127c0-.064-.064 0-.064.064-.064 0-.064-.064-.128-.128l-.064-.064-.064-.064c-.127-.064-.255-.064-.383-.127-.064 0-.128 0-.191-.064h-.384c-.063 0-.127 0-.191.063h-.064-.255c-.064 0-.064 0-.128.064-.064 0-.128 0-.192.064l-.063.064c-.064 0-.064.064-.128.064s-.128.064-.192.064c-.128.064-.191.127-.32.191-.063 0-.127.064-.127.064-.064 0-.127.064-.127.064s0 .064-.064.064l-.064.064-.128.127c0 .064-.064.064-.128.128l-.064.064s-.063 0-.063.064c-.064.064-.192.128-.256.255 0 0 0 .064-.064.064h-.063c0 .064-.064.064-.064.128l-.128.128s-.064 0-.064.064c-.064 0-.064 0-.064.063 0 .064-.127.064-.127.128-.064 0-.128.064-.128.064h-.064l-.064.064s-.064 0-.064.064h-.128c-.063 0-.127.063-.191 0h-.255c-.064 0-.064 0-.064-.064s0-.064-.064-.064h-.256s-.063 0-.063.064l-.064.064c-.064.063-.128 0-.192 0h-.191c-.128 0-.256 0-.447.063-.064 0-.128.064-.192.064h-.128c-.064 0-.127.064-.191.128-.064 0-.128.064-.192.064l-.064.064h-.127s0 .064-.064.064-.128.127-.128.191l-.128.128c0 .064-.063.064-.063.128-.064.063-.064.063-.064.127s-.064.128-.064.192-.064.128-.064.191c-.064.128-.128.256-.128.384v.383c0 .127 0 .255-.064.383V18.646c-.064 0 0 .064 0 .064-.064.063 0 .127 0 .127v.064c0 .064-.064.064 0 .128v2.107c.064 0 0 .064 0 .064V22.796c0 .064 0 .192.064.256 0 0 0 .064.064.064 0 .064 0 .064.064.127.064.064.064.128.191.192.064.064.128.128.192.128h.256c.063 0 .127.064.255 0 .064 0 .191 0 .255-.064a.484.484 0 00.256-.128c.064 0 .064 0 .064-.064 0 0 .063-.064.127-.064s.064-.063.064-.063h.064s.064 0 .064-.064c.064 0 .128-.064.128-.064s.063 0 .063-.064l.064-.064h.128v-.064l.064-.064.064-.063c0 .063.127 0 .064 0-.064-.064.063-.064.127-.128v-.128-.064-.064-.064h.064c.064 0 0 0 0-.063v-.192c.128 0 0-.064.064-.064l.064-.064s.064 0 .064-.064v-.063c0-.064.064 0 .064-.064v-.128c0-.064-.064-.064-.064-.064-.064-.064 0-.064 0-.127 0-.064-.064-.064-.064-.128.064 0 .064.128.064.128.064 0 0-.064 0-.064v-.064-.064c0-.064.064-.064.064-.064v-.064-.064-.063c0-.064.063-.064.063-.128 0 0 0-.064-.063-.064 0 0-.064 0-.064-.064 0 0-.128 0-.128-.064s.128 0 .128 0v-.064h-.064c-.064 0-.064-.063-.064-.063 0-.064-.064-.064 0-.064 0 0 .064 0 .064-.064s0-.064-.064-.064c0-.064.064-.064.064-.064.064 0 .064-.064.064-.128h-.064c-.064 0-.064.064-.064.064h-.064l.064-.064s-.064 0-.064-.063v-.064-.128-.192-.191-.128-.127c0-.064 0-.064.064-.064h.064c0-.064-.064-.064 0-.064l-.064-.064h-.064c0-.064.064-.064 0-.128-.064 0 .064-.064.064-.064v-.127s-.064-.128 0-.064v.127h.064s.064 0 .064-.063c.064 0 .064-.064 0-.064h-.064v-.128s-.064 0-.064-.064c0 0 .064 0 .064-.064v-.064h-.064c-.064 0-.064-.063-.128-.127 0 0-.064 0-.064-.064v-.128h.064c0-.064-.064-.064-.064-.128 0-.063.192 0 .128-.063h.064c.064 0 .064-.064.064-.128.064-.064 0-.064 0-.128v-.064l-.064-.063v-.064c0-.064 0-.064-.064-.064v-.128c0-.064.064-.128.064-.128.064 0 .128.064.128 0l-.064-.064h-.128c.064 0 .128 0 .128-.063 0-.064-.064 0-.064-.064 0 0 .064 0 .064-.064 0 0 .064 0 .064-.064s-.064 0-.064 0c-.064 0-.128 0-.064-.064h.064c0-.064-.064-.064 0-.064 0-.064.128 0 .064.064h.064c.063 0 0 0 .063-.064l.064-.064c0-.063-.064 0-.127-.063 0-.064 0-.064.063-.128 0 0 .064 0 .064-.064v-.128-.191c0-.064-.064 0 0-.064v-.064h.064v-.191c0-.064.064-.128 0-.192v-.064s.064 0 .064-.064c.064 0 .064-.064.128-.064.063-.063.063-.127.063-.191l-.063-.064h.063v.064c0 .064.064 0 .064 0 0-.064.064-.064.064-.064l.128-.128.064-.064s.064 0 .064-.063c.063-.064.063-.128.063-.192.064 0 .064-.064.128-.064s0 0 0-.064v-.063s0-.064.064-.064c0 0 .064 0 .064-.064h.064c.064 0 .064-.128.128-.128l.063-.064h.128l.064-.064c.064 0 .064 0 .128-.063.063-.064.063-.064.127-.064h.128c.064 0 .064-.064.064-.064h.319c.128 0 .256.128.32.191l.063.064v.064h.064V16.538h-.064v.192h.064v.064c0 .064 0 .064-.064.064 0 0-.064.064 0 .127v.256c0 .064 0 .128-.064.192v.127c0 .064 0 .192-.063.256 0 .064 0 .064.063.127 0 .064.064.128.064.192s0 .128-.064.191v.767c0 .064-.063.064 0 .128 0 .063.064.063.064.063v1.086c0 .064 0 .128.064.191v.128c0 .064 0 .064.064.064l.064.064v.064s0 .064.064.064l.064.063c0 .064.063.064.127.128l.064.064.064.064c.064.064.128.064.192.064s.064 0 .064.064c0 .063 0 .063-.064.063 0 0-.064 0-.064.064-.064 0-.064.064-.128.064h-.064c-.064.064-.127.064-.191.128-.064 0-.064.064-.128.064s-.064.064-.128.064c0 0-.064 0-.064.063l-.064.064s-.063 0-.063.064l-.064.064c-.064.064-.128.064-.192.128-.127.063-.191.127-.32.127-.255.128-.446.32-.701.384-.064 0-.128.063-.192.063s-.064.064-.064.064-.064 0-.064.064c-.127.064-.191.128-.319.192-.064 0-.128.064-.128.064h-.064c-.064 0-.064 0-.064.063-.063.064-.127.064-.191.128h-.064c-.064 0-.064.064-.128.064l-.063.064s-.064 0-.064.064c-.128.064-.192.127-.32.191-.127.064-.255.128-.319.192l-.064.064h-.064s-.063 0-.063.063c0 0-.064 0-.064.064-.128.064-.256.128-.32.192-.127.064-.255.128-.319.191-.064.064-.128.064-.191.128-.064 0-.128.064-.128.064-.128.064-.192.128-.32.128-.063 0-.127.064-.19.064-.065 0-.065.064-.129.127l-.063.064h-.064c-.064.064-.128.064-.128.128-.128.064-.192.128-.32.191-.063 0-.063.064-.127.064 0 0-.064 0-.128.064 0 0-.064 0-.064.064 0 0-.063 0-.063.064-.064 0-.064 0-.064.064 0 0-.064 0-.064.064l-.064.063h-.064s0 .064-.064.064h-.064-.064-.063v.064h-.064c-.064 0-.128.064-.128.064s-.064 0-.064.064c0 0-.064 0-.064.064l-.063.064-.064-.064s-.064 0-.128.064v.063h-.064c-.064.064-.064.128-.128.128h-.063s0 .064-.064.064c-.064.064-.064.064-.128.064s-.128.064-.192.064c-.063 0-.127.064-.191.064s-.128.063-.192.063c-.064.064-.127.064-.127.064l-.064.064-.064.064c-.064.064-.064.064-.128.064-.064.064-.128.064-.128.128-.063 0-.063.063-.127.063s-.064 0-.128.064-.128.064-.128.128c-.064.064-.127.064-.127.064a.137.137 0 00-.128.128s-.064.063-.128.063h-.064l-.063.064-.128.064c-.128.064-.256.192-.447.255-.128.064-.256.192-.383.256-.256.192-.511.32-.767.447-.127.128-.319.192-.447.32l-.063.063h-.064c-.064 0-.064 0-.064.064 0 0-.064.064-.128.064s-.128.064-.128.064c-.063.064-.127.064-.191.064l-.064.063s-.064 0-.064.064c-.064.064-.128.064-.128.064s-.063 0-.063.064c-.064 0 0 0-.064.064 0 0-.064 0-.064.064 0 0-.064 0-.064.063v.064h-.064s0 .064-.064.064h-.064v.064l-.063.064s-.128.064-.192.064v-.128s.064 0 0-.064v-.128-.063c0-.064.064-.128 0-.192 0-.064-.064-.128 0-.192v-.191-.192-.255-.064-.064c0-.064 0 0 .064-.064v-.063-.064-.064c0-.064-.064-.064-.064-.128s.064-.064.064-.128c-.064 0 0-.064 0-.064-.064 0-.064-.127 0-.191h.064l-.064-.064v-.064c0-.064.064-.064.064-.128v-.063-.192c0-.064-.064 0-.064-.064v-.127-.192s.064 0 0-.064h-.064v-.064-.127-.256-.128s0-.063.064-.063c0 0 .064 0 .064-.064h-.064v-.064-.192-.191c0-.064.064-.128.064-.192-.064 0 0-.064 0-.064v-.127-.256-.255-.256c-.064 0 0-.064 0-.127v-.192-.192-.127c0-.192.064-.383.064-.575v-.51-.128-.128-.256-.127-.064s-.064 0-.064-.064.064-.064.064-.064v-.128-.127-.128-.255s.191-.064.063-.128c0 .064 0 .064-.063 0v-.128-.128h.063c.064-.063 0-.063-.063-.127v-.064h.063v-.064s-.063 0 0-.064h.064v-.064-.127-.064-.064s-.064-.064 0-.064c.064-.064.128-.064.064-.128l-.064-.064c0-.063 0-.063.064-.063v-.064-.128-.192c.064 0 .064 0 .064-.063v-.064-.064-.128h.064s.064-.064 0-.064l-.064-.063v-.192l.064-.064c-.064 0 0-.064 0-.064v-.064-.064-.191s.064-.064 0-.064c0 0-.064 0-.064-.064s.064 0 .064 0h-.064c-.064 0 0 0 0-.064s0-.127-.064-.127-.064 0-.064-.064l-.064-.064c0-.064-.063-.064-.127-.128-.064-.128-.192-.128-.32-.191-.063 0-.127-.064-.191-.064h-.256c-.127 0-.319 0-.447.064-.063 0-.063.064-.127.064 0 0-.064 0-.064.063h-.064v.064s-.064.064-.128 0h-.064c-.063 0-.063.064-.127.064s-.064.064-.128.064-.064.064-.128.128c0 .063-.063.063-.127.127l-.064.064v.064c-.064.064-.064.128-.064.192v.319c0 .064-.064.128-.064.192V23.18c0 .063-.064-.064-.064.063v.064c0 .064 0 0 .064 0v.256h-.064v1.085c0 .064 0 .128-.064.192v.702c0 .128-.064.192 0 .32v.127s0 .064-.064.064v.192c0 .063 0 .127-.063.191 0 .128 0 .256-.064.383v.128c0 .064 0 .128-.064.192-.064.255-.128.447-.255.638 0 .064-.064.064-.128.128l-.192.191c0 .064-.064.064-.064.064s0 .064-.063.064h-.064l-.064.064-.064.064h-.064s-.064 0-.064.064h-.128l-.063.064c-.064.063-.192.063-.32.063h-.255s-.064 0-.064-.063c-.064 0-.064 0-.128-.064-.064 0-.064-.064-.064-.064-.063-.064-.127-.064-.127-.128-.064-.064-.064-.128-.064-.192v-.127l-.064-.064c-.064-.128-.064-.256-.064-.383 0-.128-.064-.256 0-.383v-.064c0-.064-.064-.064-.064-.064v-.064c0-.064 0-.128-.063-.128v-.127-.128l.063-.064c0-.064.064-.128.064-.191v-.192c0-.128 0-.255.064-.383v-.192-.127-.064-.128l.064-.064v-.064c.064 0 .064-.127.064-.191s0-.128-.064-.192c-.064 0-.064-.064-.064-.064v-.064-.063-.128-.128c.064 0 0-.255 0-.255v-.064c0-.064.064-.064.064-.128v-.128-.063-.064s0-.064.064-.064c0-.064.064-.128.064-.192 0-.063 0-.127.063-.191 0-.064.064-.128.064-.192.064-.064.128-.127.128-.191s.064-.128.064-.256c0-.064 0-.191.064-.191 0 0 0-.128.064-.064v-.064c.064 0 .064-.064.064-.128s.063-.128.063-.064c0 0 .064-.064.064-.127v-.128c-.064 0 0-.064.064-.064s.064-.064.064-.064c.064-.064.128-.064.128-.127h.063c0-.064 0-.128.064-.192 0-.064.128-.192.128-.128 0 0 .064 0 .064-.064 0 0 0-.063.064-.063 0-.064.064 0 .064-.064 0 0 .063-.064.063-.128v-.128h.064v-.127l.064-.064.064-.064v-.128s0-.064.064-.064v-.064c0-.063.064-.127.064-.191s0-.064-.064-.064v-.064c0-.064 0-.128.064-.128v-.255-.128s0-.063-.064-.063l-.064-.064s0-.064-.064-.064h-.702c-.064 0-.128.064-.192.064s-.127 0-.127.064h-.064c-.064 0-.064 0-.064.063h-.064s-.064 0-.064.064c-.064 0-.128 0-.128.064l-.064.064-.063.064-.064.064h-.064-.064s-.064.064-.064 0h-.127l-.064.064c-.128.063-.192.127-.256.191s-.191.128-.255.192l-.128.127-.064.064s0 .064-.064.064h-.063v.064s0 .064-.064.064c0 .064-.064.064-.064.127v.064h-.064s0 .064-.064.128-.064.128-.128.192l-.063.127s0 .064-.064.064v.064l-.064.064-.064.064c0 .064-.064.064-.064.127 0 .064 0 .064-.064.128v.064l-.064.064-.063.064v.064s0 .063-.064.063c0 0 0 .064-.064.064 0 0 0 .064-.064.064v.064s0 .064-.064.064c0 .064-.064.127-.064.191v.064s0 .064-.064.064v.064l-.063.064v.064c0 .064 0 .064-.064.127 0 .064 0 .064-.064.128 0 .064-.064.128-.064.128 0 .064 0 .128-.064.191 0 .064 0 .128-.064.192 0 .064 0 .128-.063.192 0 .127-.064.191-.064.319 0 .064 0 .127-.064.127v.064s.064.064 0 .064c0 .064 0 .128-.064.192v.255c0 .064-.064.064-.064.128V26.18c0 .064 0 .064-.064.127 0 .064 0 .064-.064.128v.383c.064 0 0 .192 0 .256s.064.064.064.064v2.043c.064.064 0 .064 0 .128v.255a.576.576 0 01.064.32v.063s0 .064.064.064c0 .064 0 .128.064.128 0 .064.064.127.064.127s0 .064.064.128c0 .064.063.064.063.064v.128l.064.064.192.191c.064.064.128.064.128.128v.064c.063.064.191.127.255.191.064 0 .128.064.192.064 0 0 .063 0 .063.064 0 0 0 .064.064.064v-.064h.319c.064 0 .064.064.128.064h.511c.064-.064.128 0 .192 0h.51c.064 0 .128-.064.256-.064h.064v-.064h.255s.128.064.128 0c0 0-.128 0-.128-.064s.064 0 .128-.064c.064 0 .064-.063.128-.063 0 0 .063.063.127 0v-.064h.064s0-.064.064-.064h.191c.064 0 .064 0 .128-.064.064 0 .128 0 .128-.064h.064v-.064c.064-.064.064 0 .127 0v-.064h.064l.064-.063h.128s0-.064.064-.064c0 0 .064 0 .128-.064l.063-.064c.064 0 .064 0 .128-.064l.064-.064h.128c.063 0 .063.128.063.192V31.289s0 .064.064.064c0 .064 0 0-.064.064v.511s.064.063 0 .063v.064c-.063 0-.063 0-.127.064l-.064.064-.064.064s-.064 0-.064.064l-.127.127c-.064.064-.128.064-.192.128-.064 0-.064.064-.128.128s-.127.064-.127.128h-.064c-.192.063-.32.191-.447.255-.064.064-.128.064-.192.128l-.064.064-.064.064v.063h-.063l-.064.064c-.128.064-.192.192-.32.256-.127.063-.191.191-.383.319-.127.064-.255.255-.447.32 0 .063 0 .063-.064.063l-.063.064c-.064.064-.128.064-.128.064s-.064 0-.064.064c0 0 0 .063-.064.063s-.064 0-.064.064l-.064.064-.063.064h-.064c0 .064-.064.064-.064.064-.064 0-.064.064-.128.064s-.064.064-.128.064c-.063 0-.063.063-.127.063 0 .064-.064.064-.064.064l-.064.064s-.064 0-.064.064l-.064.064-.064.064c-.063 0-.063 0-.127.064s-.128.064-.128.127l-.192.192c-.063.064-.127.128-.191.128h-.064s0 .063-.064.063c0 0-.064 0-.064.064 0 0 0 .064-.063.064-.064 0-.064.064-.128.064s-.064.064-.128.064c0 .064-.064 0-.064.064 0 0 0 .064-.064.064 0 0-.064 0-.064.063v.064h-.063c-.064 0-.064.064-.128.128l-.064.064s-.064 0-.064.064c-.064 0-.128.064-.191.064l-.064.063s-.064 0-.064.064c0 0 0 .064-.064.064 0 0 0 .064-.064.064 0 0-.064 0-.064.064-.064 0-.064.064-.127.128-.064 0-.064.063-.128.127 0 0-.064 0-.128.064l-.064.064c-.063 0-.127.064-.191.128l-.064.064c-.064 0-.064.063-.064.063l-.064.064-.064.064s-.064 0-.127.064c-.064 0-.064.064-.064.064-.064.064-.128.064-.192.127l-.127.128c-.064.064-.128.064-.192.128s-.128.064-.128.128c-.064.063-.064.127-.127.127-.064.064-.064.064-.192.128a1.392 1.392 0 00-.32.256c-.127.063-.19.191-.319.255-.063.064-.127.064-.191.128l-.064.063c-.064 0-.064 0-.064.064l-.255.256c-.064.064-.192.128-.256.191-.064.064-.127.128-.191.128.064.064-.192.064-.128.192-.064 0 0-.064-.064 0 0 .063-.127.191-.191.191-.703.32-.767.32-.767.383-.064.064-.064.064-.191.064l-.064.064-.064.064c-.064.064-.064.128-.128.128a.77.77 0 00-.319.319c-.064 0-.064.064-.128.064 0 0-.064.064-.064.127-.063 0-.063 0-.063.064 0 0-.064 0-.064.064-.064.064-.128.064-.128.128-.128.064-.191.191-.32.255-.127.064-.255.256-.382.32 0 0-.064 0-.064.063 0 0 0 .064-.064.064s-.064 0-.064.064l-.064.064c-.064.064-.127.064-.191.128 0 0-.064 0-.064.063-.064 0-.128.064-.192.128l-.127.128c-.064 0-.128.128-.192.128 0 0-.064.064-.128.064l-.064.063c-.063.064-.127.064-.191.128s-.128.128-.192.128c-.127.064-.191.191-.319.255l-.128.128-.127.128-.128.127v.064h-.064c-.064 0-.128.064-.192.128 0 .064-.063.064-.063.064l-.064.064-.064.064s-.064 0-.064.063c0 0 0 .064-.064.064h-.064l-.063.064c-.128.192-.192.255-.192.32l-.32.319c-.063.064-.127.064-.127.127l-.192.192c-.127.064-.191.191-.319.255-.128.128-.255.192-.32.32l-.063.063-.064.064c-.064.064-.128.064-.128.128l-.127.128c-.064.064-.128.064-.128.127a1.392 1.392 0 01-.32.256c-.127.064-.19.191-.255.255l-.319.32-.192.191c-.063.064-.127.128-.127.192-.064.127-.192.255-.256.319s-.127.191-.191.255-.064.128-.128.192-.064.128-.128.192c-.064.063-.064.127-.064.191.064 0 0 .064 0 .064 0 .064-.063.191-.063.191 0 .128.063.128.063.256v.128c0 .063 0 .063.064.127 0 .064 0 .128.064.128 0 0 0 .064.064.064 0 .064.064.128.064.192l.064.063c0 .064 0 .064.064.128 0 .064.063.064.127.064.064.064.064.128.128.128.128.063.192.127.32.191h.063s.064 0 .064.064h.128s.064 0 .064.064H15.885c.064 0 .064 0 .064-.064h.064c.064 0 .064 0 .064-.064 0 0 .064 0 .064-.064 0 0 0-.064.064-.064 0-.063.064-.063.064-.063.064 0 .064-.064.064-.064s.063 0 .063-.064c0 0 0-.064.064-.064l.128-.128s0-.063.064-.063c0-.064.064 0 .064-.064 0 0 0-.064.063-.064l.064-.064.128-.128.192-.191v-.064c0-.064.064-.064.127-.128l.128-.128c.064 0 .064-.064.128-.127l.128-.128s.063 0 .063-.064l.064-.064s0-.064.064-.064l.064-.063s.064 0 .064-.064c0 0 0-.064.064-.064h.064s0-.064.063-.064l.064-.064v-.064s.064 0 .064-.064l.064-.063.128-.128c0-.064.063-.064.063-.128s0-.064.064-.128c0 0 .064 0 .064-.063h.064s0-.064.064-.064c0 0 .064 0 .064-.064 0 0 0-.064.064-.064l.127-.128c0-.064.064-.064.128-.064l.128-.127.064-.064s0-.064.063-.064c.064-.064.064-.064.128-.064l.128-.128c0-.063.064-.063.064-.063s0-.064.064-.064c0 0 .063 0 .063-.064.064 0 .064-.064.064-.128 0 0 0-.064.064-.064 0 0 .064 0 .064-.064l.128-.127.127-.128s.064 0 .064-.064c0 0 0-.064.064-.064l.128-.127c.064-.064.128-.064.128-.128.127-.064.127-.192.191-.256.064-.063.128-.191.256-.191 0 0 .063 0 .063-.064l.128-.128c0-.063.064-.063.064-.063l.064-.064c.064-.064.064-.064.064-.128l.064-.064v-.064s.063 0 .063-.064l.064-.064.064-.063.064-.064c.064-.064.064-.128.128-.128.064-.064.127-.064.191-.191 0-.064.064-.064.128-.064s.064-.064.128-.064c.063 0 .063-.064.127-.064 0-.064 0-.064.064-.064s.064 0 .064-.064.064-.064.128-.127c0 0 .064 0 .064-.064l.064-.064.127-.128.064-.064v-.064l.128-.127.128-.128c0-.064 0-.064.063-.064.064 0 .064 0 .064-.064l.128-.127.064-.064s0-.064.064-.064c0-.064.064-.064.127-.128l.064-.064s.064 0 .064-.064c0 0 0-.063.064-.063l.064-.064s.064 0 .064-.064c0 0 0-.064.063-.064.064-.064.064-.064.128-.064 0 0 0-.064.064-.064l.064-.064.064-.063.064-.064s.063-.064.127-.064c.064-.064.192-.128.256-.192l.127-.127c.064 0 .064-.064.128-.128l.064-.064s.064 0 .064-.064l.128-.128.127-.127c.064-.064.192-.128.256-.192.064 0 .064-.064.064-.064.063 0 .127-.064.191-.127l.192-.192c.063-.064.191-.128.255-.191l.128-.128h.064v-.064s.064 0 .064-.064l.127-.128.128-.127c.064-.064.128-.064.128-.128s.064-.064.127-.064c.064 0 .064-.064.128-.064l.064-.064h.064l.064-.063.127-.128s.064 0 .064-.064h.064s0-.064.064-.064l.064-.064c.064-.064.127-.064.127-.128l.128-.127c.064 0 .064 0 .064-.064 0 0 .064 0 .064-.064l.064-.064.064-.064h.127s0-.063.064-.063h.064l.064-.064.064-.064c.064-.064.128-.064.128-.128.063-.064.191-.128.255-.255 0 0 .064 0 .064-.064l.064-.064c.064 0 .064-.064.127-.064l.128-.128.128-.127.064-.064h.063l.064-.064c.064-.064.128-.064.128-.128v-.064h.064c.064 0 .064 0 .064-.063 0 0 .064 0 .064-.064.063 0 .063-.064.127-.064l.128-.128s0-.064.064-.064h.128s.063 0 .063-.064v-.063h.064c0-.064.064-.064.064-.064s.064 0 .064-.064c.064 0 0 0 .064-.064l.064-.064s.064 0 .064-.064c0 0 0-.064.063-.064 0 0 .064 0 .064-.063l.064-.064.064-.064c.064 0 .064-.064.128-.064 0 0 .063-.064.127-.064 0 0 0-.128.064-.064.064 0 .128-.064.128-.064a.137.137 0 00.128-.127c.064-.064.127-.064.127-.128l.064-.064s.064 0 .064-.064l.064-.064c0-.063 0-.063.064-.063s.064-.064.127-.064c0-.064.064-.064.128-.128s.064-.064.128-.064.064-.064.064-.064c.064 0 .064-.063.127-.063.064-.064.128-.064.128-.128.064-.064.064-.064.128-.064 0 0 .064 0 .064-.064 0 0 .064 0 .064-.064.064 0 .064-.064.127-.064.064 0 .064-.063.128-.063 0 0 .064 0 .064-.064.064 0 .064 0 .128-.064V41.442l.063.064v.255h-.063v.064s0 .064.063.064v.703c0 .063-.063.127-.063.191v.383c0 .128 0 .192.063.32V44.827c0 .063 0 .127-.063.191V47.636c.063 0 0 .128 0 .192v1.532c.063 0 .063.064.063.064V51.084c0 .064.064.128.064.192v.255c0 .064.064.128.064.192s.064.064.064.128l.064.063.064.064c.064.064.127.064.127.128.064 0 .064.064.128.064a.198.198 0 00.128.064c.128.064.255.064.383.127.064 0 .128.064.192.064h.639s.063 0 .063-.064h.064l.064-.063s.064 0 .064-.064c.127-.064.255-.192.447-.32l.063-.063.064-.064c.064-.064.064-.128.128-.128 0 0 0-.064.064-.064v-.064c0-.063.064-.063.064-.127v-.064-.064h.127s0-.064.064-.064h.064c-.064 0-.128-.064-.128-.064h-.063v-.191s.127 0 .127-.064h-.064v-.064c0-.064-.063-.064 0-.064 0 0 .064-.064.128-.064 0 0 .064-.064 0-.064 0 0 0 .064-.064.064s0-.064 0-.064h-.064s0-.063-.063-.063v.063h-.064v-.063s-.064 0-.064-.064c0 0 .064-.064 0-.064l-.064.064v-.064c-.064.064 0 0-.064-.064h-.064c-.064 0 0-.064 0-.064v-.064h.064c-.064 0 0-.064 0-.064h-.064-.064s-.063.064-.063 0v-.063-.064c.063 0 0 0 0 .063 0 0 0 .064.063.064h.064v-.063s.064 0 .064-.064c0 0-.064 0-.064-.064h-.064.064l.064-.064c-.064 0 0-.064 0-.064.064 0 0 .064 0 .064.064 0 .064-.064.064-.128h-.128c-.064 0-.064-.064-.064-.064-.063-.064-.063.064-.127 0 .064 0 .064-.127.127-.064 0 0 0 .064.064.064l.064-.064s0-.063-.064-.063c0 0-.064 0-.064-.064-.063 0 0 0-.063-.064-.064 0 0 0 0 .064v-.128-.064h-.064c0 .064.064.128-.064.128-.064 0-.128-.064-.128-.064v-.064c0-.064.064 0 0-.064l-.064-.063v-.064-.064h.064s.064 0 0-.064h-.064v-.064c0-.064.064 0 .128 0s.064-.064.064-.064l-.064-.064c-.064 0-.064.064-.064.064h-.064c-.127 0 0-.064 0-.064h.192s-.064 0-.064-.063l.064-.064.064-.064v-.064l.064-.064s-.064 0-.064-.064c0 0 .064 0 0-.064 0 0 0 .064-.064.064s0-.064 0-.064h-.064v-.063h-.064v-.064-.32-.063h-.064v-.064h-.064v.063h-.063s0-.063-.064-.063H36v-.064l.064-.064v-.064c-.064 0-.064 0-.064-.064s.128-.064.128 0-.064 0 0 0v-.127-.064s.064 0 0-.064h-.064c0-.064.128-.064.064-.128 0-.064-.128 0-.064-.064 0 0 .064 0 .064-.064v-.063H36v-.064-.064c.064-.064-.064-.064-.128-.064 0 0-.064.064-.064 0v-.064c.064-.064 0-.128 0-.191h.128v-.064c0-.064-.064-.064-.128 0 0-.064.064-.064 0-.064h-.063v-.064l-.128-.064.064-.064s.064-.127 0-.127c0 0-.064 0-.064-.064v-.064-.064c-.064-.064.064-.064.128-.064l.063-.064h-.127v-.191s0-.064-.064-.064 0 .064 0 .064 0 .064-.064.064h-.064v-.064-.064c0-.064.064 0 .064-.064s-.064-.064-.064-.064c0-.064.064-.064 0-.064 0-.064.128 0 .192 0v-.064s-.064 0-.064-.063v-.064h-.064v-.064-.064h-.064c-.064 0 0-.064 0-.064v-.064h.064s0-.063.064-.063h.064c.064 0 .064-.064.064-.128l-.064.064c0 .064-.064 0-.064 0 0-.064 0-.064.064-.064v-.064l-.064.064s0 .064-.064 0v-.064s-.064 0-.064-.064.064 0 .064-.064v-.064-.063.063h-.128v-.063-.064c0-.064 0-.064-.064-.064v-.064h-.063c-.064 0 0-.064 0-.064l.063-.064h.064l.064-.064v-.064h.064v-.063h-.128.128s.064 0 .064-.064v-.064h-.064s.064-.064 0-.064h-.064l-.064-.064h.064c.064 0 .064-.064 0-.064 0 0-.064 0-.064-.063h-.064v-.064s-.063 0-.063-.064 0-.064.063-.064h.064v-.064-.064-.127s0-.064-.064-.064c0 0-.063.063-.127.063 0 0 .064 0 .064-.063 0 0-.064-.064-.064 0v0l.064-.064v-.064h-.064c-.064 0 0-.064 0-.064v-.064-.064h.127v-.063h-.063v-.064c0-.064 0-.064.063-.064h-.063s.063 0 .063-.064h-.063v-.128s0-.064.063-.064v-.063s0 .063-.063.063v-.063s0-.064.063-.064c0 0 .064-.064 0-.064h-.063v-.064-.064-.128s-.064 0-.064-.063v-.064-.128h.064v-.255h-.064.064v-.064-.064-.128-.064-.127s0-.064-.064 0v-.192h.064v-.192s.063-.063 0-.063h-.064v-.064s.064 0 .064-.064h.063V40.1h-.063v-.064-.127-.064-.064-.192-.255-.064-.064-.064c0-.063 0 0 .063-.063v-.064-.128-.128-.127-.064c0-.064-.063 0-.063-.064v-.192-.191-.064-.064s-.064-.064 0-.064v-.064-.127h.063v.063s.064 0 .064-.063v-.064l.064-.064h-.064s.064-.064 0-.064v-.128h.064v-.064-.063-.064-.128-.064-.128-.127h-.064v-.064h-.064v-.064-.064-.064-.127l.064-.064v-.064s-.064 0-.064-.064v-.064-.064-.064l.064-.063v-.064l.064-.064v-.128h-.064c-.064 0 0-.064-.064-.064v-.063-.064-.064-.064-.255h-.063v-.064h.127v-.064-.064c-.064 0-.064 0-.064-.064s.064-.064.064-.064v-.191-.064c0-.064.064-.064.064-.064l.064-.064s0-.064.064-.064c0 0 0 .064.064 0 0 0 0-.064.064-.064h.063v-.063h.128s0-.064.064-.064c0 0 .064-.064 0-.064h.255c-.063 0 0-.064.064-.064h.064v-.064l.064-.064s.064 0 .064-.064c0 0 .064 0 .064-.064l.064-.063h.063v-.064l.064-.064h.256l.127-.128c0-.064.064-.064.128-.064h.064l.064-.063c.064-.064.064-.064.127-.064 0 0 .064 0 .064-.064 0 0 .064 0 .064-.064.064 0 .064-.064.128-.128s.128-.064.192-.127h.127v-.064s.064 0 .064-.064h.128c0-.064 0-.064.064-.064 0 0 .063 0 .063-.064 0 0 .064 0 .064-.064l.064-.064h.064s0-.064.064-.064.128-.063.191-.063c.064-.064.128-.064.192-.128h.064l.064-.064s.064 0 .064-.064l.127-.064c.064-.063.064-.064.128-.064s.064-.063.128-.063c0 0 .064 0 .064-.064 0 0 .063 0 .063-.064.064 0 .064-.064.128-.064s.128-.064.192-.128c.064 0 .127-.063.127-.063l.064-.064s.064 0 .064-.064v-.064h.128l.064-.064c.064-.064.127-.064.191-.128.128-.063.192-.127.32-.191.063 0 .063-.064.127-.064s.128-.064.192-.064c.128-.064.191-.128.32-.191.063-.064.127-.064.19-.128.065-.064.128-.064.192-.064.064-.064.128-.064.192-.128.064 0 .127-.064.127-.064.064-.063.064-.063.128-.063s.128-.064.128-.064l.064-.064h.064l.064-.064s.063 0 .063-.064c0 0 .064 0 .064-.064 0 0 .064 0 .064-.064.064 0 .064-.063.128-.063l.064-.064s.063 0 .063-.064l.064-.064h.064v-.064h.064s.064 0 .064-.064c.064-.064.064-.064.128-.064s.127-.063.191-.063c0 0 0-.064.064-.064 0 0 .064 0 .064-.064.064 0 .128-.064.191-.128.128-.064.192-.127.32-.127 0 0 .064 0 .064-.064l.127-.064.064-.064c.064 0 .128-.064.128-.064.064 0 .128-.064.128-.064h.064l.063-.064s.128 0 .128-.063h.128s.064-.064.127-.064h.064l.064-.064.064-.064s.064-.064.064 0l.064-.064s.064 0 .064-.064c.063 0 .127-.064.127-.064l.064-.064.128-.063.064-.064c.064 0 .127-.064.191-.064l.064-.064c0-.064 0-.064.064-.064h.128c0-.064.127-.064.127-.064l.064-.064s.064 0 .064-.063c.064-.064.064-.064.128-.064 0 0 .064 0 .064-.064 0 0 0-.064.064-.064h.191c.064 0 .128-.064.192-.064.063 0 .063-.064.127-.064s0 0 .064-.064h.128c.064-.063.128-.063.191-.063.064 0 .128-.064.192-.064s.128-.064.128-.064c.064 0 .128-.064.191-.064.064-.064.128-.064.192-.128 0-.063.064-.063.128-.063h.063l.064-.064h.064s.128-.064.192-.064c0 0 .064 0 .064-.064.064 0 .064 0 .064-.064h.127c.064 0 .064-.064.128-.064h.064l.064-.064c.063 0 .063-.063.127-.063 0 0 .064 0 .064-.064h.064l.128-.064.064-.064c.063 0 .127-.064.127-.064l.064-.064h.064c.064 0 .128-.064.128-.064.064-.063.128-.063.191-.127.064 0 .128-.064.192-.064 0 0 .064 0 .064-.064h.064c.063 0 .127-.064.127-.064s.064 0 .064-.064c.064 0 .064 0 .064-.064.064 0 .128-.063.192-.063.063 0 .127-.064.191-.064s.128-.064.128-.064c.064 0 .128 0 .128-.064.063 0 .127-.064.127-.064l.064-.064h.064l.064-.063c.064 0 .064 0 .064-.064.064 0 .127-.064.127-.064.064 0 .128-.064.192-.064l.064-.064h.064c.064 0 .064-.064.127-.064.064 0 .064 0 .128-.064.064 0 .064-.064.128-.064h.127s.064-.063.128-.063.064-.064.128-.064c.128-.064.255-.064.383-.128.064 0 .128-.064.192-.064s.319-.128.447-.128c.127-.063.255-.063.383-.127.064 0 .127-.064.191-.064s.128 0 .192-.064c.128-.064.255-.064.383-.128.064 0 .128 0 .192-.064.063-.063.191-.063.255-.127.128-.064.192-.064.32-.128.063 0 .063-.064.127-.064s.255-.127.32-.191c.063 0 .127-.064.127-.064.128-.064.192-.192.32-.192h.063l.064-.064s.064 0 .064-.063c.064 0 .064 0 .064-.064 0 0 .064 0 .064-.064.063-.064.063-.128.127-.192 0-.064.064-.064.064-.128l.064-.063v-.064-.064h.064s0 .064.064.064c0 0-.064-.064 0-.064v-.128c.063 0 .063 0 .063-.064s.064-.127.064-.127v0-.064s0-.064.064-.064v-.064h.064l.064-.064s-.064 0-.064-.064c1.086-1.34 1.086-1.34 1.086-1.404zM40.533 12.58c0 .063 0 .063.064.127v.128l.192.192s.064.063.128.063c.063 0 .063 0 .127.064s.128.064.256.064H41.874l.064-.064c.064 0 .128-.064.192-.064l.064-.063h.127s0-.064.064-.064c0 0 .064 0 .064-.064.064 0 .064-.064.128-.064l.191-.192c0-.063.064-.063.064-.127s.064-.064.064-.128c0 0 .064-.064.064-.128s.064-.064.128-.127l.127-.128c0-.064.064-.064.128-.064v-.128l.064-.064v-.063l.064-.064v-.064-.064-.064-.127c0-.064 0-.064.064-.128l.064-.064v-.064-.128-.064c-.064 0-.064-.063 0-.127v-.064c0-.064 0-.064-.064-.064l-.064-.064v-.064l-.064-.063s0-.064-.064-.064v-.064l-.064-.064h-.064-.255-.639c-.063 0-.063 0-.127.064-.064 0-.064 0-.128.064h-.064-.064c-.064 0-.064 0-.127.063h-.064s-.064.064-.128.064h-.064l-.064.064h-.063-.064l-.064.064h-.128v.064l-.064.064s0 .064-.064.064h-.063v.127h-.064l-.064.064v.064l-.064.064v.128c-.064.063-.064.063-.064.127v.064s0 .128-.064.128v.511c0 .064.064.064.064.064-.192.319-.192.383-.192.447zM19.462 27.203c-.128 0-.128-.128-.192-.128s-.064-.191 0-.191l-.064-.064c0-.064-.063-.064-.063-.128s0-.192-.064-.256l-.128-.127v-.128c-.064 0-.128-.064-.128-.064h-.191c-.128 0-.256 0-.32.064-.191.064-.383.128-.574.255-.064.064-.128.064-.192.128-.064 0-.127.064-.191.128h-.128l-.064.064c-.064.064-.128.064-.128.128-.063 0-.127.127-.191.191s-.128.192-.192.255c-.064.192-.191.384-.255.575 0 .064-.064.128-.064.256 0 .063 0 .255-.064.255.064.128 0 .192 0 .32 0 .127-.064.255-.064.382v.447c0 .128-.063.256-.063.383 0 .064-.064.384 0 .447 0 .064-.064.064-.064.128v.703c0 .191 0 .447-.064.638v.766c-.128-.127-.064.192 0 .256 0 .064-.064.128-.064.191 0 .064.064.128 0 .192 0 .128-.064.255-.064.32 0 .127-.064.255-.064.382v.384c0 .191-.064.447 0 .638v.766c0 .128-.064.256-.064.383v.767c0 .064.064.191 0 .255.064.064 0 .128 0 .192s.064.127.064.127c0 .064.064.064.064.128s.064.064.064.128c.064 0 0 .064.064.064l.064.064c.064 0 .127.063.127.063.128.064.256.064.32.064h.064c.063 0 .063 0 .063-.064h.192s0-.063.064-.063c0 0 .064 0 .064-.064.063 0 .127-.064.127-.064.064-.064.128-.064.256-.128a.137.137 0 00.127-.127l.128-.128c.064 0 .064-.064.128-.064l.191-.192c.064-.064 0-.127.128-.064.064 0 .128.064.128 0 .064-.063 0-.127.064-.191 0 .064.064.064.064.064h.063v-.064c0-.064.064-.128.064-.128 0-.127-.064-.064-.191-.064-.064 0 0 0-.064-.063v-.128c0-.064.064-.128.128-.192v-.191s0-.064.063-.064v-.128-.255s-.064-.064 0-.064c0 0 0-.064.064-.064 0-.064 0-.064.064-.128v-.127s.064-.128 0-.128c0-.064 0-.192-.064-.256 0-.064.064-.127.064-.191v-.128-.064c0-.064.064-.064.064-.127v-.192-.192-.127-.192-.128-.191c0-.064.064-.128.064-.192v-.191c0-.064.064-.064.064-.128v-.192-.127s0-.064.063-.064c0-.064 0-.128.064-.192v-.191-.192-.191l.064-.064c.064-.064 0-.192.064-.256v-.064l.064-.063v-.383-.192c0-.064 0-.128.064-.192v-.383-.191c0-.064.064-.064.064-.128s0-.128.063-.192c0-.064.064-.127.064-.191s-.064-.128 0-.192c0 0 .064 0 .064-.064v-.063c0-.064 0-.064.064-.128v-.256l-.064-.063v-.128c0-.064.064-.128.064-.192s.064-.127.064-.127c0-.064-.064-.064-.064-.128v-.128c0-.064.064-.064.064-.064h-.064c-.064 0-.064-.127-.064-.127-.064-.064-.064-.128-.064-.192v-.255c.064 0 .192 0 .192-.064z" fill="#1D1D1B"/><path d="M65.374 31.161H43.28a6.295 6.295 0 00-6.322 6.322 6.295 6.295 0 006.322 6.322h22.094a6.295 6.295 0 006.321-6.322c0-3.512-2.873-6.322-6.321-6.322zm-17.05 8.749c0 .255-.128.447-.32.51-.063 0-.127.064-.19.064-.065 0-.129 0-.192-.064-.192-.063-.32-.255-.32-.51v-2.874c0-.32-.127-.639-.447-.702-.127-.064-.255-.064-.383-.064-.191 0-.319 0-.447.064-.127.063-.319.063-.447.191v3.385c0 .255-.127.447-.319.51-.064 0-.128.064-.191.064a.572.572 0 01-.575-.574v-2.938c0-.383-.192-.638-.511-.702-.128-.064-.255-.064-.383-.064-.32 0-.511.064-.703.128v3.576c0 .127-.063.319-.191.383-.128.127-.256.191-.383.191-.128 0-.256-.064-.384-.191-.127-.064-.191-.192-.191-.383v-4.087c.255-.128.51-.192.766-.256.32-.063.639-.063 1.022-.063s.702.063.958.127c.255.064.447.256.575.383.063-.064.191-.127.255-.191.32-.192.702-.32 1.277-.32.128 0 .255 0 .383.064.256.064.447.128.639.256.063.064.191.127.255.191.128.128.255.32.32.447.063.192.127.383.127.575v2.874zm4.023.255c-.32.255-.702.447-1.213.447-.192 0-.32 0-.511-.064-.766-.191-1.213-.702-1.405-1.469-.064-.319-.128-.638-.128-1.021 0-.383.064-.703.128-1.022.192-.766.702-1.34 1.405-1.469.128-.063.32-.063.51-.063.703 0 1.214.255 1.533.702.32.447.511 1.085.511 1.788-.064.958-.32 1.724-.83 2.171zm4.853-.32c-.383.448-1.022.703-1.724.703-.575 0-1.022-.064-1.341-.191-.128-.064-.192-.064-.255-.128v-6.322c0-.128.063-.32.191-.383.128-.064.256-.191.383-.191.064 0 .128 0 .192.063.064 0 .127.064.191.128.064.128.128.255.128.383v1.788c.064 0 .128-.064.192-.064.127-.064.255-.064.447-.127h.319c.128 0 .255 0 .383.063.383.064.702.32.958.639.32.447.51 1.022.51 1.724.065.83-.19 1.469-.574 1.916zm2.554.065c0 .319-.255.574-.51.574-.065 0-.128 0-.192-.064-.192-.063-.32-.255-.32-.51v-3.768c0-.32.256-.575.511-.575.256 0 .447.128.511.32 0 .063.064.127.064.191v3.832h-.064zm-.32-5.237c-.063 0-.127.064-.255.064-.063 0-.191 0-.255-.064a.556.556 0 01-.383-.51c0-.256.128-.447.383-.511.064 0 .128-.064.255-.064.064 0 .192 0 .256.064a.556.556 0 01.383.51c0 .256-.128.448-.383.511zm1.917 5.811h-.064c-.32 0-.511-.255-.511-.574v-6.003c0-.32.255-.51.51-.51.32 0 .512.255.512.574v6.002c.063.256-.128.511-.447.511zm5.236-.255c-.064.064-.192.064-.32.128-.319.127-.766.191-1.34.191-.511 0-.958-.128-1.342-.383-.127-.064-.255-.192-.319-.255-.383-.447-.638-1.086-.638-1.916 0-1.213.447-2.044 1.213-2.363.128-.064.255-.127.383-.127s.32-.064.447-.064c.32 0 .639.064.83.191.383.192.639.447.83.83.192.383.256.894.256 1.533l-3.002.447c.064.447.192.766.384 1.022.191.255.51.319.958.319.383 0 .702-.064.957-.128.064 0 .128-.064.192-.064s.128-.064.192-.064h.127c.128.064.256.192.256.32.127.191.064.319-.064.383z" fill="#1D1D1B"/><path d="M51.07 36.206c-.767 0-.958.894-.958 1.852 0 .894.191 1.788.958 1.788.766 0 .957-.83.957-1.788 0-.958-.127-1.852-.957-1.852zM64.736 36.206c-.639 0-1.086.511-1.086 1.724l2.043-.319c0-1.022-.319-1.405-.957-1.405zM55.603 36.142c-.32 0-.51.064-.639.128v3.448c.128.064.384.128.575.128.894 0 1.213-.767 1.213-1.916-.063-.958-.319-1.788-1.149-1.788z" fill="#1D1D1B"/><path d="M51.07 39.91c-.767 0-.958-.894-.958-1.852 0-.958.127-1.852.958-1.852.766 0 .957.894.957 1.852 0 .958-.127 1.852-.957 1.852z" fill="#1D1D1B"/></svg><svg fill="none" viewBox="0 0 107 53" id="yelp" xmlns="http://www.w3.org/2000/svg"><path d="M9.847 40.164h.07l3.23-11.669c.365-1.305 1.126-2.617 2.54-2.293 1.865.433 1.865 1.169 1.865 1.8 0 .422-.147.954-.403 1.623l-5.28 17.413c-1.272 3.522-2.724 5.36-6.062 5.36-2.36 0-3.338-1.125-3.338-2.365 0-1.371 1.576-2.063 2.99-2.063h.544c.69 0 1.538-.367 1.94-1.958L.654 30.986C.216 29.757 0 29.192 0 28.594c0-1.41.201-1.745 1.74-2.332 1.071-.411 2.398.774 2.724 1.942l5.383 11.96zM51.893 28.622c0-1.63.701-2.496 2.207-2.496 1.441 0 2.213.867 2.213 2.496v.834h.065c.805-2.244 2.779-3.33 5.155-3.33 4.083 0 7.666 3.22 7.666 10.056 0 5.063-2.376 9.803-7.53 9.803-2.24 0-3.92-.976-4.818-2.677h-.065v7.055c0 1.74-.973 2.644-2.447 2.644-1.473 0-2.446-.905-2.446-2.644v-21.74zm10.711 1.147c-2.952 0-4.067 3.055-4.067 6.396 0 3.018.973 6.562 4.067 6.518 3.23 0 4.029-3.78 4.029-6.518 0-3.461-1.321-6.32-4.029-6.396zM41.393 22.34c0-1.766.962-2.688 2.425-2.688 1.462 0 2.425.922 2.425 2.688v22.065c0 1.767-.963 2.683-2.425 2.683-1.463 0-2.425-.922-2.425-2.683V22.34zM24.533 37.8c0 2.864 1.56 4.949 4.208 4.949 3.431 0 3.431-2.678 5.275-2.678 1.093 0 1.87 1.12 1.87 2.124 0 3.275-4.399 4.8-7.145 4.8-6.361 0-8.764-5.135-8.764-9.864 0-6.325 3.213-10.571 8.607-10.571 5.241 0 8.237 4.427 8.237 8.892 0 1.86-.467 2.343-1.995 2.343H24.533v.005zm7.503-2.93c-.266-2.775-1.94-4.805-4.116-4.805-2.44 0-3.914 1.865-4.453 4.806h8.57zM106.733 9.602a3.364 3.364 0 01-.739 1.12c-.316.312-.68.559-1.104.74-.419.18-.87.274-1.354.274-.484 0-.935-.093-1.354-.274a3.576 3.576 0 01-1.104-.74 3.525 3.525 0 01-1.027-2.518 3.497 3.497 0 012.131-3.226c.419-.182.87-.275 1.354-.275.484 0 .935.093 1.354.274.419.181.788.428 1.104.741.315.313.56.68.739 1.108A3.5 3.5 0 01107 8.203c0 .5-.087.966-.267 1.4zm-.511-2.59a3.199 3.199 0 00-.614-.976 2.818 2.818 0 00-.914-.653 2.666 2.666 0 00-1.142-.241c-.407 0-.788.082-1.141.241-.354.16-.658.379-.919.653a3.103 3.103 0 00-.62.977 3.152 3.152 0 00-.229 1.185 3.193 3.193 0 00.849 2.183c.261.28.571.505.929.664a2.798 2.798 0 002.273 0c.354-.16.653-.379.914-.658.255-.275.462-.598.614-.977.152-.373.228-.773.228-1.201 0-.417-.076-.818-.228-1.196zm-1.691 3.237c-.103-.137-.207-.466-.299-.998-.054-.269-.152-.46-.294-.57-.141-.11-.348-.165-.619-.165h-.473v1.733h-.506V6.327c.179-.022.342-.038.495-.06a3.71 3.71 0 01.527-.033c.272 0 .506.027.701.082.196.06.348.126.463.214.239.176.359.444.359.795 0 .27-.077.483-.229.642a1.29 1.29 0 01-.544.33v.032c.359.06.582.379.675.955.054.302.098.521.141.664.044.142.082.241.125.307h-.522v-.006zm-.402-3.368c-.153-.159-.43-.241-.827-.241-.103 0-.195 0-.266.01a1.52 1.52 0 00-.19.023v1.47h.489c.272 0 .511-.055.718-.165.206-.11.304-.301.304-.57a.747.747 0 00-.228-.527zM88.85 24.67c-.646.66-.097 1.855-.097 1.855l4.866 8.202s.8 1.08 1.49 1.08c.696 0 1.38-.576 1.38-.576l3.85-5.552s.386-.702.397-1.31c.017-.873-1.288-1.114-1.288-1.114l-9.113-2.952s-.892-.236-1.484.368zM88.388 20.532c.467.796 1.75.565 1.75.565l9.091-2.682s1.24-.51 1.414-1.185c.174-.68-.206-1.498-.206-1.498l-4.345-5.162s-.375-.653-1.158-.719c-.859-.071-1.392.977-1.392.977l-5.138 8.152c.01.01-.446.823-.016 1.552zM84.092 17.358c1.071-.264 1.24-1.833 1.24-1.833L85.26 2.47S85.098.856 84.38.422c-1.126-.69-1.457-.329-1.783-.28L75.05 2.974s-.74.247-1.126.867c-.549.883.56 2.173.56 2.173l7.846 10.785c0-.005.778.806 1.762.56zM82.228 22.642c.027-1.01-1.197-1.613-1.197-1.613l-8.112-4.136s-1.202-.5-1.784-.154c-.445.269-.842.752-.88 1.174l-.528 6.561s-.081 1.136.212 1.657c.414.735 1.773.225 1.773.225l9.471-2.112c.365-.247 1.012-.269 1.044-1.602zM84.589 26.186c-.816-.423-1.784.45-1.784.45l-6.34 7.044s-.794 1.075-.587 1.739c.19.62.506.927.946 1.146l6.367 2.03s.772.16 1.36-.01c.831-.242.68-1.553.68-1.553l.14-9.535c-.01-.006-.043-.927-.782-1.311z" fill="#000"/></svg></svg>